<?xml version="1.0" encoding="UTF-8"?>
<svg width="18px" height="15px" viewBox="0 0 18 15" version="1.1" xmlns="http://www.w3.org/2000/svg" xmlns:xlink="http://www.w3.org/1999/xlink">
    <title>编组</title>
    <g id="线索评级" stroke="none" stroke-width="1" fill="none" fill-rule="evenodd">
        <g id="分析洞察-智能分析-新建事件分析" transform="translate(-1253.000000, -512.000000)" fill="currentColor" fill-rule="nonzero">
            <g id="编组-2" transform="translate(1246.000000, 503.000000)">
                <g id="编组" transform="translate(7.000000, 9.266251)">
                    <path d="M17.3333333,14.7337488 L0.666666667,14.7337488 C0.298476833,14.7337488 0,14.4488391 0,14.0973852 L0,1.37011248 C0,1.01865855 0.298476833,0.733748841 0.666666667,0.733748841 C1.0348565,0.733748841 1.33333333,1.01865855 1.33333333,1.37011248 L1.33333333,13.4610216 L17.3333333,13.4610216 C17.7015232,13.4610216 18,13.7459313 18,14.0973852 C18,14.4488391 17.7015232,14.7337488 17.3333333,14.7337488 Z" id="路径"></path>
                    <path d="M9.9,11.7216957 C9.51340068,11.7216957 9.2,11.4218967 9.2,11.0520758 L9.2,3.31930566 C9.2,2.94948482 9.51340068,2.64968579 9.9,2.64968579 C10.2865993,2.64968579 10.6,2.94948482 10.6,3.31930566 L10.6,11.0520758 C10.6,11.4218967 10.2865993,11.7216957 9.9,11.7216957 Z M5.7,11.7304007 C5.31340068,11.7304007 5,11.4306017 5,11.0607809 L5,6.69619862 C5,6.32637778 5.31340068,6.02657876 5.7,6.02657876 C6.08659932,6.02657876 6.4,6.32637778 6.4,6.69619862 L6.4,11.0607809 C6.4,11.4306017 6.08659932,11.7304007 5.7,11.7304007 Z M14.1,11.7337488 C13.7134007,11.7337488 13.4,11.4339498 13.4,11.064129 L13.4,0.669619862 C13.4,0.299799024 13.7134007,0 14.1,0 C14.4865993,0 14.8,0.299799024 14.8,0.669619862 L14.8,11.064129 C14.8,11.4339498 14.4865993,11.7337488 14.1,11.7337488 Z" id="形状"></path>
                </g>
            </g>
        </g>
    </g>
</svg>