<?xml version="1.0" standalone="no"?><!DOCTYPE svg PUBLIC "-//W3C//DTD SVG 1.1//EN" "http://www.w3.org/Graphics/SVG/1.1/DTD/svg11.dtd"><svg class="icon" width="200px" height="200.00px" viewBox="0 0 1024 1024" version="1.1" xmlns="http://www.w3.org/2000/svg"><path fill="" d="M131.703961 989.862115a64.315775 64.315775 0 0 1 0-128.699827h760.660354a64.315775 64.315775 0 0 1 0 128.699827z m-7.510335-199.365249l46.632351-162.428057 9.148953-9.899986 151.230831 153.620482-9.490332 9.490332-160.379784 47.042006a31.270303 31.270303 0 0 1-8.466196 1.228964 30.655821 30.655821 0 0 1-28.744099-39.053741z m79.40472-196.292839L670.809441 119.482598 821.698893 273.10308l-467.211095 474.72143z m490.834512-498.413122l49.773036-50.933724a37.005467 37.005467 0 0 1 25.67169-10.65102 37.824777 37.824777 0 0 1 25.671689 10.65102l99.477797 101.457794a37.27857 37.27857 0 0 1 10.65102 26.14962 38.234431 38.234431 0 0 1-10.65102 26.013069l-49.773036 50.52407z" /></svg>