<?xml version="1.0" encoding="UTF-8"?><svg version="1.1" width="16px" height="16px" viewBox="0 0 16.0 16.0" xmlns="http://www.w3.org/2000/svg" xmlns:xlink="http://www.w3.org/1999/xlink"><defs><clipPath id="i0"><path d="M1440,0 L1440,1030 L0,1030 L0,0 L1440,0 Z"></path></clipPath><clipPath id="i1"><path d="M7.27385951,9.37982863e-14 C7.67886693,9.39341082e-14 8.00719031,0.328323382 8.00719031,0.7333308 L8.00719031,4.32929866 C8.00719031,4.73430608 7.67886693,5.06262946 7.27385951,5.06262946 L-8.43769499e-15,5.06384591 C0.311747517,4.94977029 0.601879657,4.77448177 0.847184335,4.53950499 L5.588,0 L7.27385951,9.37982863e-14 Z"></path></clipPath><clipPath id="i2"><path d="M4.22725763,2.27373675e-13 C4.63226504,2.27188254e-13 4.96058843,0.328323382 4.96058843,0.7333308 L4.96058843,9.6372996 L4.96058843,9.72037976 C4.96058843,10.9159516 3.94073379,11.9564404 2.65011038,12.0410721 L2.48029421,12.0466245 C1.11046554,12.0466245 0,10.967933 0,9.72037976 C0,9.69244209 0.000433673307,9.66463526 0.00129445139,9.636965 L2.27373675e-13,0.7333308 C2.27435099e-13,0.328323382 0.328323382,2.27781141e-13 0.7333308,2.27373675e-13 L4.22725763,2.27373675e-13 Z"></path></clipPath><clipPath id="i3"><path d="M4.2666692,0 C4.67167662,2.85320192e-16 5,0.328323382 5,0.7333308 L5,9.6 L5,9.68275862 C5,10.8757744 3.96846406,11.9137695 2.66437569,11.9949003 L2.5,12 C1.11928813,12 0,10.9254834 0,9.68275862 C0,9.65509974 0.000431774154,9.62756959 0.0012888228,9.60017379 L1.42108547e-13,0.7333308 C1.42058948e-13,0.328323382 0.328323382,5.18487865e-16 0.7333308,0 L4.2666692,0 Z"></path></clipPath><clipPath id="i4"><path d="M1,0 C1.55228475,0 2,0.44771525 2,1 C2,1.55228475 1.55228475,2 1,2 C0.44771525,2 0,1.55228475 0,1 C0,0.44771525 0.44771525,0 1,0 Z"></path></clipPath></defs><g transform="translate(-252.0 -115.0)"><g clip-path="url(#i0)"><g transform="translate(252.0 115.0)"><g transform="translate(1.4999999999999378 1.5000000000000187)"><g transform="translate(4.940318071594696 6.968643554129129)"><g clip-path="url(#i1)"><polygon points="-8.43769499e-15,0 8.00719031,0 8.00719031,5.06384591 -8.43769499e-15,5.06384591 -8.43769499e-15,0" stroke="none" fill="#91CBED"></polygon></g></g><g transform="translate(8.518249870732568 0.9639675658767635) rotate(45.00000000000001)"><g clip-path="url(#i2)"><polygon points="0,2.27373675e-13 4.96058843,2.27373675e-13 4.96058843,12.0466245 0,12.0466245 0,2.27373675e-13" stroke="none" fill="#026EAE"></polygon></g></g><g transform="translate(1.024446134290649 0.0)"><g clip-path="url(#i3)"><polygon points="0,0 5,0 5,12 0,12 0,0" stroke="none" fill="#91CBED"></polygon></g></g><g transform="translate(2.024446134290649 9.0)"><g clip-path="url(#i4)"><polygon points="0,0 2,0 2,2 0,2 0,0" stroke="none" fill="#FFFFFF"></polygon></g></g></g></g></g></g></svg>