<?xml version="1.0" encoding="UTF-8"?>
<svg width="12px" height="14px" viewBox="0 0 12 14" version="1.1" xmlns="http://www.w3.org/2000/svg" xmlns:xlink="http://www.w3.org/1999/xlink">
    <title>线索评级</title>
    <g id="线索评级" stroke="none" stroke-width="1" fill="none" fill-rule="evenodd">
        <g id="线索评级-评级模型" transform="translate(-27.000000, -99.000000)" fill="#1F2226" fill-rule="nonzero">
            <g id="业务分类" transform="translate(24.000000, 97.000000)">
                <g id="线索评级" transform="translate(3.000000, 2.000000)">
                    <path d="M10.736842,0 C11.4344648,0 12,0.473047674 12,1.05658155 L12,13.6034874 C12.0001312,13.751996 11.9009675,13.8880967 11.7431097,13.9560655 C11.5852519,14.0240343 11.3952085,14.0124575 11.2507893,13.926075 L8.76315779,12.4392666 L6.2751315,13.9257448 C6.11043028,14.0241521 5.88917484,14.0241521 5.72447362,13.9257448 L3.23684208,12.4392666 L0.748815793,13.9257448 C0.604461022,14.0119021 0.414663796,14.0233983 0.256975333,13.9555361 C0.0992868709,13.8876739 0.000122183368,13.7518212 0,13.6034874 L0,1.05658155 C0,0.473047674 0.565535049,0 1.26315789,0 L10.736842,0 Z M10.69375,1.2 L1.50625001,1.2 C1.3371128,1.2 1.2,1.31131407 1.2,1.44862693 L1.2,12.5336584 L3.15310938,11.4011628 C3.31283526,11.3085368 3.52740694,11.3085368 3.68713282,11.4011628 L6.1,12.8 L8.51248438,11.4011628 C8.67221026,11.3085368 8.88678193,11.3085368 9.04650781,11.4011628 L11,12.5336584 L11,1.44862693 C11,1.31131407 10.8628872,1.2 10.69375,1.2 Z" id="形状结合"></path>
                    <path d="M2,6.6 C2,6.26862915 2.21319774,6 2.47619048,6 L9.52380952,6 C9.78680226,6 10,6.26862915 10,6.6 C10,6.93137085 9.78680226,7.2 9.52380952,7.2 L2.47619048,7.2 C2.21319774,7.2 2,6.93137085 2,6.6 Z" id="路径"></path>
                    <path d="M2,3.6 C2,3.26862915 2.21319774,3 2.47619048,3 L9.52380952,3 C9.78680226,3 10,3.26862915 10,3.6 C10,3.93137085 9.78680226,4.2 9.52380952,4.2 L2.47619048,4.2 C2.21319774,4.2 2,3.93137085 2,3.6 Z" id="路径"></path>
                    <path d="M2,9.6 C2,9.26862915 2.21319774,9 2.47619048,9 L9.52380952,9 C9.78680226,9 10,9.26862915 10,9.6 C10,9.93137085 9.78680226,10.2 9.52380952,10.2 L2.47619048,10.2 C2.21319774,10.2 2,9.93137085 2,9.6 Z" id="路径"></path>
                </g>
            </g>
        </g>
    </g>
</svg>