<?xml version="1.0" standalone="no"?><!DOCTYPE svg PUBLIC "-//W3C//DTD SVG 1.1//EN" "http://www.w3.org/Graphics/SVG/1.1/DTD/svg11.dtd"><svg class="icon" width="200px" height="200.00px" viewBox="0 0 1024 1024" version="1.1" xmlns="http://www.w3.org/2000/svg"><path fill="" d="M596.391712 512.000512L1020.928102 20.496732a12.492388 12.492388 0 0 0-10.239662-20.479325H881.975888a26.623121 26.623121 0 0 0-19.864945 8.908506L512.016897 414.314136 161.92285 8.925913A26.111138 26.111138 0 0 0 142.057905 0.017407H12.935766a12.492388 12.492388 0 0 0-10.239662 20.479325L427.642081 512.000512 3.105691 1003.504292a12.492388 12.492388 0 0 0 10.239662 20.479325h129.019742a26.623121 26.623121 0 0 0 19.864945-8.908506L512.016897 609.686888l350.094046 405.388223a26.111138 26.111138 0 0 0 19.864945 8.908506h129.019742a12.492388 12.492388 0 0 0 10.239662-20.479325z" /></svg>