<?xml version="1.0" encoding="UTF-8"?><svg version="1.1" width="16px" height="14px" viewBox="0 0 16.0 14.0" xmlns="http://www.w3.org/2000/svg" xmlns:xlink="http://www.w3.org/1999/xlink"><defs><clipPath id="i0"><path d="M1440,0 L1440,1462 L0,1462 L0,0 L1440,0 Z"></path></clipPath><clipPath id="i1"><path d="M2.98408261,8.33014317e-05 C4.64765731,-0.00196720716 5.9979201,1.3394976 6,2.99632883 C6.00203786,4.65316006 4.65511317,5.99794944 2.99153847,6 C2.78565051,6 2.61874535,5.83377139 2.61874535,5.62871802 C2.61874535,5.42366465 2.78565051,5.25743605 2.99153847,5.25743604 C4.17535758,5.24158383 5.14173098,4.30973537 5.19588505,3.13184258 C5.25003912,1.95394979 4.37321441,0.938045227 3.19580355,0.814512887 C2.01839269,0.690980548 0.948261289,1.50261314 0.754779696,2.66588787 C0.751216518,2.67771659 0.747312751,2.68911919 0.743088932,2.70010512 C0.739579678,2.70871568 0.00584936142,2.70909429 0.000734332748,2.70453839 C-0.000489297618,2.69170621 -0.000202839005,2.67879294 0.00173757745,2.66588787 C0.159030618,1.14538407 1.44933002,-0.00796539412 2.98408261,8.33014317e-05 Z"></path></clipPath><clipPath id="i2"><path d="M2.98901216,0 C4.65258686,-0.00200864132 6.00284965,1.33945617 6.00494105,2.9962874 C6.00696741,4.65311863 4.66004272,5.99790801 2.99646802,5.99995857 C2.79058006,5.99995857 2.6236749,5.83372996 2.6236749,5.62867659 C2.6236749,5.42362322 2.79058006,5.25739461 2.99646802,5.25739461 C4.18028714,5.24154239 5.14666053,4.30969394 5.2008146,3.13180115 C5.25496867,1.95390836 4.37814397,0.938003792 3.20073311,0.814471453 C2.02332225,0.690939114 0.953190845,1.5025717 0.759709252,2.66584644 C0.75588488,2.67854224 0.747084474,2.70045887 0.747084474,2.70247289 C0.747084474,2.70269667 0.737943519,2.70287072 0.72169133,2.70300357 L0.315227849,2.7031663 C0.274561298,2.70310606 0.234902392,2.70303876 0.19828085,2.70297291 L0.00549825358,2.70264993 C-0.00662973715,2.70448691 0.00481978851,2.67813252 0.00666713337,2.66584644 C0.163960174,1.14534264 1.45425958,-0.00800682828 2.98901216,0 Z"></path></clipPath><clipPath id="i3"><path d="M1.36979968,0.130580442 L1.78764443,0.802654323 C1.28025362,1.13127351 0.931935107,1.65287483 0.814565777,2.23756455 L0.8,2.324 L0.791610001,2.39804287 C0.738282118,3.05790935 0.978273906,3.73416568 1.49768315,4.21870093 C2.36336521,5.02625968 3.70532688,5.02151432 4.55876559,4.20787652 C4.85746914,3.92310329 5.06011287,3.57376753 5.16456133,3.20119561 L5.19,3.094 L5.2127178,2.95065459 C5.25456953,2.59974002 5.21390233,2.23403456 5.07897433,1.88234214 C4.9014434,1.41960438 4.58647547,1.04823334 4.19780714,0.799036913 L4.62041656,0.103724938 C4.84510609,0.246054951 5.05135758,0.418218138 5.23266518,0.616428376 L5.248,0.634 L5.27720999,0.662554468 C5.36104504,0.759236088 5.43765453,0.859716152 5.50708427,0.96333226 L5.562,1.052 L5.59576979,1.10475854 L5.596,1.106 L5.60584978,1.12102565 L5.657,1.217 L5.69525044,1.28541412 L5.696,1.288 L5.77120928,1.44853744 L5.776,1.462 L5.78293743,1.47441755 C5.83732866,1.60312357 5.88345085,1.7371582 5.92049075,1.87604815 C6.32544796,3.35643299 5.54535198,4.90127532 4.11736852,5.44674407 L4.06908268,5.45921501 L4.038,5.458 C2.89917399,5.86539045 1.58246711,5.56004949 0.744092297,4.59325445 C-0.268838824,3.44021492 -0.244907505,1.70974827 0.799437761,0.593497458 L0.837369891,0.561121533 L0.87,0.546 L0.933093708,0.48171585 C1.06635367,0.352157777 1.21234218,0.234384129 1.36979968,0.130580442 Z"></path></clipPath><clipPath id="i4"><path d="M12.4753419,0.815160913 C12.7576458,1.36456957 12.6428474,2.0218307 12.1885611,2.45708187 C11.7342747,2.89233303 11.0385766,3.01160751 10.4506198,2.75504451 L7.532,7.479 L7.113,8.157 L7.07241453,8.22420119 C7.09219731,8.2404597 7.11444709,8.25470889 7.13882288,8.26739748 C7.68521826,8.61404481 7.9370632,9.25372298 7.75833479,9.85656722 C7.57230912,10.4840248 6.96537993,10.9179505 6.27378445,10.9179505 C5.58218897,10.9179505 4.97525978,10.4840248 4.7892341,9.85656722 C4.60320843,9.2291096 4.88363343,8.56174887 5.47515436,8.22420119 L5.454,8.19 L2.15285324,2.77009033 C1.60819759,2.99666386 0.978346367,2.90450035 0.533610226,2.54398456 L0.426439184,2.4482941 C-0.019901158,2.00966188 -0.127111942,1.35480773 0.15820421,0.809888133 C0.443520362,0.264968539 1.06035503,-0.0534977331 1.70148769,0.0131045523 C2.34262034,0.0797068378 2.87095923,0.517136285 3.02336002,1.10752689 L9.60407188,1.10752689 C9.75521608,0.513982539 10.2861263,0.0740045022 10.9303524,0.00840642637 C11.5745785,-0.0571916495 12.1930379,0.265752257 12.4753419,0.815160913 Z M9.64400338,1.85981804 L3.02336002,1.85981804 C2.96669799,2.01322994 2.88593722,2.15777203 2.783771,2.28862399 L6.26579814,7.9684222 L6.32968855,7.9684222 L9.8276883,2.25853235 C9.74629627,2.13470259 9.68442252,2.0003968 9.64400338,1.85981804 Z"></path></clipPath></defs><g transform="translate(-682.0 -212.0)"><g clip-path="url(#i0)"><g transform="translate(681.9999908146447 211.99999999999977)"><g transform="translate(10.000009185355111 0.0)"><g clip-path="url(#i1)"><polygon points="0,4.14341612e-05 6.00000231,4.14341612e-05 6.00000231,6 0,6 0,4.14341612e-05" stroke="none" fill="#026EAE"></polygon></g></g><g transform="translate(6.004941050639731 4.14341611758573e-05) scale(-1.0 1.0)"><g clip-path="url(#i2)"><polygon points="8.67361738e-19,-4.14341612e-05 6.00494333,-4.14341612e-05 6.00494333,5.99995857 8.67361738e-19,5.99995857 8.67361738e-19,-4.14341612e-05" stroke="none" fill="#026EAE"></polygon></g></g><g transform="translate(4.981377065601009 8.36288157292961)"><g clip-path="url(#i3)"><polygon points="-1.19348975e-13,0.103724938 6.02712571,0.103724938 6.02712571,5.63486677 -1.19348975e-13,5.63486677 -1.19348975e-13,0.103724938" stroke="none" fill="#026EAE"></polygon></g></g><g transform="translate(1.6800166797554539 1.593282745031729)"><g clip-path="url(#i4)"><polygon points="5.55111512e-17,-5.72458747e-17 12.6285545,-5.72458747e-17 12.6285545,10.9179505 5.55111512e-17,10.9179505 5.55111512e-17,-5.72458747e-17" stroke="none" fill="#91CBED"></polygon></g></g></g></g></g></svg>