<?xml version="1.0" encoding="UTF-8"?>
<svg width="14px" height="16px" viewBox="0 0 14 16" version="1.1" xmlns="http://www.w3.org/2000/svg" xmlns:xlink="http://www.w3.org/1999/xlink">
    <title>路径 16</title>
    <g id="线索评级" stroke="none" stroke-width="1" fill="none" fill-rule="evenodd">
        <g id="分析洞察-分析列表" transform="translate(-624.000000, -154.000000)" fill="currentColor">
            <g id="组-9242" transform="translate(578.000000, 146.000000)">
                <path d="M49.08,18.7942724 C49.7,18.7942724 50.21,19.2942724 50.21,19.9142724 L50.21,19.9142724 L50.21,21.8742724 C50.21,22.4942724 49.7,23.0042724 49.08,23.0042724 L49.08,23.0042724 L47.12,23.0042724 C46.5,23.0042724 46,22.4942724 46,21.8742724 L46,21.8742724 L46,19.9142724 C46,19.2942724 46.5,18.7942724 47.12,18.7942724 L47.12,18.7942724 Z M49.0846008,19.7288704 L47.1246008,19.7288704 C47.0146008,19.7288704 46.9346008,19.8088704 46.9346008,19.9188704 L46.9346008,21.8788704 C46.9346008,21.9788704 47.0146008,22.0688704 47.1246008,22.0688704 L49.0846008,22.0688704 C49.1846008,22.0688704 49.2746008,21.9788704 49.2746008,21.8788704 L49.2746008,19.9188704 C49.2746008,19.8088704 49.1846008,19.7288704 49.0846008,19.7288704 Z M58.6121906,20.429821 C58.8721906,20.429821 59.0821906,20.639821 59.0821906,20.899821 C59.0821906,21.159821 58.8721906,21.359821 58.6121906,21.359821 L58.6121906,21.359821 L53.0121906,21.359821 C52.7521906,21.359821 52.5421906,21.159821 52.5421906,20.899821 C52.5421906,20.639821 52.7521906,20.429821 53.0121906,20.429821 L53.0121906,20.429821 Z M49.08,13.4670563 C49.7,13.4670563 50.21,13.9670563 50.21,14.5870563 L50.21,14.5870563 L50.21,16.5470563 C50.18,17.1570563 49.69,17.6270563 49.08,17.6270563 L49.08,17.6270563 L47.12,17.6270563 C46.5,17.6270563 46,17.1270563 46,16.5070563 L46,16.5070563 L46,14.5870563 C46,13.9670563 46.5,13.4670563 47.12,13.4670563 L47.12,13.4670563 Z M47.1186354,14.3548299 C47.0586354,14.3548299 47.0086354,14.3748299 46.9686354,14.4248299 C46.9286354,14.4748299 46.9186354,14.5348299 46.9386354,14.5848299 L46.9386354,16.5548299 C46.9386354,16.6548299 47.0186354,16.7348299 47.1186354,16.7348299 L49.0886354,16.7348299 C49.1886354,16.7348299 49.2686354,16.6548299 49.2686354,16.5548299 L49.2686354,14.5848299 C49.2686354,14.4848299 49.1886354,14.4048299 49.0886354,14.4048299 L47.1186354,14.3548299 Z M58.6121906,15.0558748 C58.8721906,15.0558748 59.0821906,15.2658748 59.0821906,15.5258748 C59.0821906,15.7858748 58.8721906,15.9858748 58.6121906,15.9858748 L58.6121906,15.9858748 L53.0121906,15.9858748 C52.7521906,15.9858748 52.5421906,15.7858748 52.5421906,15.5258748 C52.5421906,15.2658748 52.7521906,15.0558748 53.0121906,15.0558748 L53.0121906,15.0558748 Z M49.08,8.04638035 C49.7,8.04638035 50.21,8.54638035 50.21,9.16638035 L50.21,9.16638035 L50.21,11.1263803 C50.21,11.7463803 49.7,12.2563803 49.08,12.2563803 L49.08,12.2563803 L47.12,12.2563803 C46.5,12.2563803 46,11.7463803 46,11.1263803 L46,11.1263803 L46,9.16638035 C46,8.54638035 46.5,8.04638035 47.12,8.04638035 L47.12,8.04638035 Z M49.0846008,8.98097956 L47.1246008,8.98097956 C47.0146008,8.98097956 46.9346008,9.06097956 46.9346008,9.17097956 L46.9346008,11.1309796 C46.9346008,11.2309796 47.0146008,11.3209796 47.1246008,11.3209796 L49.0846008,11.3209796 C49.1846008,11.3209796 49.2746008,11.2309796 49.2746008,11.1309796 L49.2746008,9.17097956 C49.2746008,9.06097956 49.1846008,8.98097956 49.0846008,8.98097956 Z M58.6121906,9.68192923 C58.8721906,9.68192923 59.0821906,9.89192923 59.0821906,10.1519292 C59.0821906,10.4119292 58.8721906,10.6119292 58.6121906,10.6119292 L58.6121906,10.6119292 L53.0121906,10.6119292 C52.7521906,10.6119292 52.5421906,10.4119292 52.5421906,10.1519292 C52.5421906,9.89192923 52.7521906,9.68192923 53.0121906,9.68192923 L53.0121906,9.68192923 Z" id="路径-16"></path>
            </g>
        </g>
    </g>
</svg>