<?xml version="1.0" encoding="UTF-8"?>
<svg width="18px" height="18px" viewBox="0 0 18 18" version="1.1" xmlns="http://www.w3.org/2000/svg" xmlns:xlink="http://www.w3.org/1999/xlink">
    <title>线索评级</title>
    <g id="分析洞察" stroke="none" stroke-width="1" fill="none" fill-rule="evenodd">
        <g id="分析洞察-分析看板" transform="translate(-24.000000, -514.000000)">
            <g id="线索评级" transform="translate(24.000000, 514.000000)">
                <rect id="路径" x="0" y="0" width="18" height="18"></rect>
                <g id="编组" transform="translate(5.000000, 11.000000)"></g>
                <g id="编组-3" transform="translate(2.230000, 2.000000)" fill="currentColor" fill-rule="nonzero">
                    <path d="M11.6315787,0 C12.3873368,0 13,0.473047674 13,1.05658155 L13.0005166,6.75812038 C12.6678373,6.53536542 12.3037979,6.35579937 11.9164206,6.22744435 L11.9166665,1.44862693 C11.9166665,1.31131407 11.7681277,1.2 11.5848957,1.2 L1.63177082,1.2 C1.44853885,1.2 1.17671204,1.31131407 1.17671204,1.44862693 L1.17671204,12.5336584 L3.41586846,11.4011628 C3.58890482,11.3085368 3.82135747,11.3085368 3.99439384,11.4011628 L6.60833326,12.8 L6.62526,12.7897051 C6.8116734,13.1044828 7.03535235,13.3945859 7.29022128,13.6539389 L6.79805906,13.9257448 C6.61963273,14.0241521 6.37993935,14.0241521 6.20151302,13.9257448 L3.50657888,12.4392666 L0.8112171,13.9257448 C0.654832767,14.0119021 0.449219108,14.0233983 0.278389942,13.9555361 C0.107560776,13.8876739 0.000132365314,13.7518212 0,13.6034874 L0,1.05658155 C0,0.473047674 0.612662963,0 1.36842103,0 L11.6315787,0 Z M5.31746021,9 C5.602369,9 5.83333322,9.26862915 5.83333322,9.6 C5.83333322,9.93137085 5.602369,10.2 5.31746021,10.2 L2.68253965,10.2 C2.39763086,10.2 2.16666664,9.93137085 2.16666664,9.6 C2.16666664,9.26862915 2.39763086,9 2.68253965,9 L5.31746021,9 Z M6.31746021,6 C6.602369,6 6.83333322,6.26862915 6.83333322,6.6 C6.83333322,6.93137085 6.602369,7.2 6.31746021,7.2 L2.68253965,7.2 C2.39763086,7.2 2.16666664,6.93137085 2.16666664,6.6 C2.16666664,6.26862915 2.39763086,6 2.68253965,6 L6.31746021,6 Z M10.3174602,3 C10.602369,3 10.8333332,3.26862915 10.8333332,3.6 C10.8333332,3.93137085 10.602369,4.2 10.3174602,4.2 L2.68253965,4.2 C2.39763086,4.2 2.16666664,3.93137085 2.16666664,3.6 C2.16666664,3.26862915 2.39763086,3 2.68253965,3 L10.3174602,3 Z" id="形状结合"></path>
                    <path d="M9.86902678,7.1 C10.6337816,7.1 11.3261772,7.40701982 11.827357,7.90353194 C12.3281966,8.39970699 12.6380536,9.08514425 12.6380536,9.84230633 C12.6380536,10.3387806 12.4998396,10.800866 12.2647956,11.2015433 L12.1582547,11.3694237 L13.115144,12.5482068 L11.5500539,12.0109341 C11.082971,12.3654822 10.5033574,12.5846127 9.86902678,12.5846127 C9.10427199,12.5846127 8.41187636,12.2775928 7.91069654,11.7810807 C7.40985696,11.2849057 7.1,10.5994684 7.1,9.84230633 C7.1,9.08514425 7.40985696,8.39970699 7.91069654,7.90353194 C8.41187636,7.40701982 9.10427199,7.1 9.86902678,7.1 Z M9.87,7.81503835 C9.28998,7.81503835 8.76498322,8.05003377 8.38498932,8.43002767 C8.00499543,8.81002156 7.77,9.33501835 7.77,9.91503835 C7.77,10.4950583 8.00499543,11.0200551 8.38498932,11.400049 C8.76498322,11.7800429 9.28998,12.0150383 9.87,12.0150383 C10.45002,12.0150383 10.9750168,11.7800429 11.3550107,11.400049 C11.7350046,11.0200551 11.97,10.4950583 11.97,9.91503835 C11.97,9.33501835 11.7350046,8.81002156 11.3550107,8.43002767 C10.9750168,8.05003377 10.45002,7.81503835 9.87,7.81503835 Z" id="形状结合" stroke="currentColor" stroke-width="0.2"></path>
                </g>
            </g>
        </g>
    </g>
</svg>