<?xml version="1.0" encoding="UTF-8"?><svg version="1.1" width="54px" height="43px" viewBox="0 0 54.0 43.0" xmlns="http://www.w3.org/2000/svg" xmlns:xlink="http://www.w3.org/1999/xlink"><defs><clipPath id="i0"><path d="M1440,0 L1440,820 L0,820 L0,0 L1440,0 Z"></path></clipPath><clipPath id="i1"><path d="M2.00019533,0 C3.10646698,0 4,0.800723622 4,1.79181246 L4,41.2085375 C4,42.1995564 3.10646691,43 2.00019533,43 C0.893845579,43 0,42.1995563 0,41.2085375 L0,1.79181246 C0,0.800723622 0.893845579,0 2.00019533,0 Z"></path></clipPath><clipPath id="i2"><path d="M51.7728551,0 C53.0045522,0 54,0.893906281 54,2.00023441 C54,3.10656254 53.0046391,4 51.7728551,4 L2.22697091,4 C0.995186855,4 0,3.10648437 0,2.00023441 C0,0.89398445 0.995186855,0 2.22697091,0 L51.7728551,0 Z"></path></clipPath><clipPath id="i3"><path d="M5.50015612,0 C8.56965631,0 11,2.43028124 11,5.50009369 C11,8.56990613 8.56965631,11 5.50015612,11 C2.43034369,11 0,8.56984372 0,5.50009369 C0,2.4303437 2.43034364,0 5.50015612,0 Z"></path></clipPath><clipPath id="i4"><path d="M4.00013022,0 C6.26686197,0 8,1.73341257 8,4.00016277 C8,6.13331813 6.13333332,8 4.00013022,8 C1.73339841,8 0,6.26684786 0,4.00016277 C0,1.86668187 1.73339846,0 4.00013022,0 Z"></path></clipPath><clipPath id="i5"><path d="M4.29181378,2.59044925e-05 L4.50012923,0.00587726099 C7.01474199,0.00587731094 9,1.99004019 9,4.50293866 C9,7.01609541 7.01474199,9 4.50012923,9 C1.98525801,9 0,7.01609546 0,4.50293866 C0,1.99004019 1.98525796,-0.126322755 4.50012923,0.00587726099 Z"></path></clipPath><clipPath id="i6"><path d="M2.21733029,0 C3.44927397,0 4.43472069,0.999882819 4.43472069,2.24988881 C4.43472069,3.4998948 3.44927401,4.49983861 2.21733029,4.49983861 C0.98544672,4.49983861 0,3.49989485 0,2.24988881 C0,0.999821733 0.98544672,-6.10387888e-05 2.21733029,0 Z M18.8914047,0.499838613 C19.1858213,0.498619485 19.4685295,0.616760649 19.6766983,0.828026221 C19.8848671,1.03929179 20.0012494,1.32617826 20,1.6249258 C20.0012011,1.92364166 19.8847975,2.21048087 19.676634,2.4217067 C19.4684705,2.63293253 19.1857898,2.75104861 18.8914047,2.74982982 C18.5969829,2.75109748 18.3142496,2.63300495 18.1060374,2.42177557 C17.8978252,2.21054619 17.7813834,1.92367918 17.7825693,1.6249258 C17.7813352,1.32614075 17.8977557,1.03922647 18.1059731,0.827957349 C18.3141906,0.616688226 18.5969515,0.498570616 18.8914047,0.499838613 Z"></path></clipPath><clipPath id="i7"><path d="M0,1.50949936 C0,0.615169879 0.60021975,-0.129898493 1.5,0.0190715033 C2.25014649,0.0190715033 3,0.615169879 3,1.50949936 C3,2.25456773 2.40007323,3 1.5,3 C0.750146492,3 0,2.40382885 0,1.50949936 Z"></path></clipPath><clipPath id="i8"><path d="M1.37351692,0.000982733677 L1.5,0.0125152724 C2.30766197,0.0125153158 3,0.701965073 3,1.50625766 C3,2.31055024 2.30766197,3 1.5,3 C0.692338033,3 0,2.31055024 0,1.50625766 C0,0.587178307 0.692338033,-0.102327556 1.5,0.0125152724 Z"></path></clipPath><clipPath id="i9"><path d="M1.50012205,0 C2.37512208,0 3,0.624877968 3,1.49987795 C3,2.24993897 2.37512203,3 1.50012205,3 C0.625122075,3 0,2.37487792 0,1.49987795 C0,0.624877921 0.625122028,0 1.50012205,0 Z"></path></clipPath><clipPath id="i10"><path d="M1.50009156,0 C2.37507375,0 3,0.625109356 3,1.50009153 C3,2.37513479 2.37507375,3 1.50009156,3 C0.625109366,3 0,2.37507371 0,1.50009153 C0,0.625109356 0.625109366,0 1.50009156,0 Z"></path></clipPath><clipPath id="i11"><path d="M1.49979653,0 C2.33339663,0 3,0.7498352 3,1.49996338 C3,2.40001464 2.33339663,3 1.49979653,3 C0.666603373,3 0,2.24987182 0,1.49996338 C0,0.7498352 0.666603373,0 1.49979653,0 Z"></path></clipPath><clipPath id="i12"><path d="M1.0001173,0 C1.26567214,-0.00106961856 1.52066148,0.103955396 1.70841831,0.291752979 C1.89617515,0.479550563 2.00114482,0.734562691 2.00001802,1.0001173 C2.00110139,1.2656388 1.89611079,1.52060344 1.70835711,1.70835711 C1.52060344,1.89611079 1.2656388,2.00110139 1.0001173,2.00001802 C0.734562691,2.00114482 0.479550563,1.89617515 0.291752979,1.70841831 C0.103955396,1.52066148 -0.00106961856,1.26567214 0,1.0001173 C-0.00111304316,0.734529353 0.103891041,0.479492517 0.291691779,0.291691779 C0.479492517,0.103891041 0.734529353,-0.00111304316 1.0001173,0 Z"></path></clipPath></defs><g transform="translate(-918.0 -355.0)"><g clip-path="url(#i0)"><g transform="translate(918.0 355.0)"><g clip-path="url(#i1)"><polygon points="0,0 4,0 4,43 0,43 0,0" stroke="none" fill="#CDE7F7"></polygon></g><g transform="translate(0.0 39.0)"><g clip-path="url(#i2)"><polygon points="0,0 54,0 54,4 0,4 0,0" stroke="none" fill="#CDE7F7"></polygon></g></g><g transform="translate(8.0 14.0)"><g clip-path="url(#i3)"><polygon points="0,0 11,0 11,11 0,11 0,0" stroke="none" fill="#CDE7F7"></polygon></g></g><g transform="translate(34.0 6.0)"><g clip-path="url(#i4)"><polygon points="0,0 8,0 8,8 0,8 0,0" stroke="none" fill="#CDE7F7"></polygon></g></g><g transform="translate(35.0 27.0)"><g clip-path="url(#i5)"><polygon points="0,0 9,0 9,9 0,9 0,0" stroke="none" fill="#CDE7F7"></polygon></g></g><g transform="translate(6.999999999999998 29.50016138658299)"><g clip-path="url(#i6)"><polygon points="0,0 20.00001,0 20.00001,4.49983861 0,4.49983861 0,0" stroke="none" fill="#CDE7F7"></polygon></g></g><g transform="translate(10.0 6.0)"><g clip-path="url(#i7)"><polygon points="0,-1.59247615e-15 3,-1.59247615e-15 3,3 0,3 0,-1.59247615e-15" stroke="none" fill="#CDE7F7"></polygon></g></g><g transform="translate(41.0 19.0)"><g clip-path="url(#i8)"><polygon points="0,-2.27248775e-16 3,-2.27248775e-16 3,3 0,3 0,-2.27248775e-16" stroke="none" fill="#CDE7F7"></polygon></g></g><g transform="translate(50.0 13.0)"><g clip-path="url(#i9)"><polygon points="0,0 3,0 3,3 0,3 0,0" stroke="none" fill="#CDE7F7"></polygon></g></g><g transform="translate(25.0 13.0)"><g clip-path="url(#i10)"><polygon points="0,0 3,0 3,3 0,3 0,0" stroke="none" fill="#CDE7F7"></polygon></g></g><g transform="translate(17.0 7.0)"><g clip-path="url(#i11)"><polygon points="0,0 3,0 3,3 0,3 0,0" stroke="none" fill="#CDE7F7"></polygon></g></g><g transform="translate(31.999991100845538 19.99999110084554)"><g clip-path="url(#i12)"><polygon points="-8.75924647e-06,-8.75924647e-06 2.000027,-8.75924647e-06 2.000027,2.000027 -8.75924647e-06,2.000027 -8.75924647e-06,-8.75924647e-06" stroke="none" fill="#D9E2FD"></polygon></g></g></g></g></g></svg>