<?xml version="1.0" encoding="UTF-8"?><svg version="1.1" width="110px" height="102px" viewBox="0 0 110.0 102.0" xmlns="http://www.w3.org/2000/svg" xmlns:xlink="http://www.w3.org/1999/xlink"><defs><clipPath id="i0"><path d="M1440,0 L1440,820 L0,820 L0,0 L1440,0 Z"></path></clipPath><clipPath id="i1"><path d="M93.5714578,0 C94.3722312,0 95.0106857,0.553278689 95,1.25 L95,8.75 C95,9.43647541 94.36141,10 93.5606365,10 L1.43922793,10 C0.649275757,10 0,9.43647541 0,8.75 L0,1.25 C0,0.56352459 0.638454494,0 1.43922793,0 Z"></path></clipPath><clipPath id="i2"><path d="M89.7198178,0 C92.63041,0 95,2.38234008 95,5.33294478 L95,69.6670552 C95,72.6067317 92.63041,75 89.7198178,75 L5.28018223,75 C2.36958998,75 0,72.6067317 0,69.6670552 L0,5.33294478 C0,2.38234008 2.36958998,0 5.28018223,0 Z"></path></clipPath><clipPath id="i3"><path d="M34,0 L34,0.79558011 L15.513308,24 L12.0228137,20.5524862 L8.53231939,24 L8.53231939,16.9723757 L30.121673,2.78453039 L6.20532319,14.718232 L0,8.75138122 L0,7.9558011 L34,0 Z"></path></clipPath><clipPath id="i4"><path d="M5.70352941,0 C6.97411765,0 8,0.96263587 8,2.1548913 L8,13 L0,13 L0,2.1548913 C0,0.96263587 1.02588235,0 2.29647059,0 L5.70352941,0 Z"></path></clipPath><clipPath id="i5"><path d="M8.99996927,0 C13.9676617,0 17.9999694,4.21845574 17.9999694,9.42561205 C18.0090203,13.0414313 16.0110452,16.3370998 12.8687754,17.9001883 L12.8687754,35 L5.14932652,35 L5.14932652,17.9096045 C2.00705672,16.346516 0,13.0414313 0,9.42561205 C0,4.21845574 4.03227685,0 8.99996927,0 Z M8.99998469,5.67567568 C7.00939984,5.67567568 5.39999081,7.36911737 5.39999081,9.45945946 C5.39999081,11.5498015 7.00939984,13.2432432 8.99998469,13.2432432 C10.9905695,13.2432432 12.5999786,11.5498015 12.5999786,9.45945946 C12.5999786,7.37793738 10.9905695,5.67567568 8.99998469,5.67567568 Z"></path></clipPath><clipPath id="i6"><path d="M5.70352941,0 C6.97411765,0 8,1.04166667 8,2.33180428 L8,25 L0,25 L0,2.33180428 C0,1.04166667 1.02588235,0 2.29647059,0 L5.70352941,0 Z"></path></clipPath><clipPath id="i7"><path d="M6.29647059,0 C6.74823529,0 7.18117647,0.180483592 7.50117647,0.503454231 C7.82117647,0.82642487 8,1.26338515 8,1.7193437 L8,33 L0,33 L0,1.7193437 C0,1.26338515 0.178823529,0.82642487 0.498823529,0.503454231 C0.818823529,0.180483592 1.25176471,0 1.70352941,0 L6.29647059,0 Z"></path></clipPath></defs><g transform="translate(-689.0 -509.0)"><g clip-path="url(#i0)"><g transform="translate(689.0 509.0)"><g transform="translate(7.0 88.0)"><g clip-path="url(#i1)"><polygon points="0,0 95.0001322,0 95.0001322,10 0,10 0,0" stroke="none" fill="#CDE7F7"></polygon></g></g><g transform="translate(7.0 6.0)"><g clip-path="url(#i2)"><polygon points="0,0 95,0 95,75 0,75 0,0" stroke="none" fill="#CDE7F7"></polygon></g></g><g transform="translate(14.0 11.0)"><g clip-path="url(#i3)"><polygon points="0,0 34,0 34,24 0,24 0,0" stroke="none" fill="#FFFFFF"></polygon></g></g><g transform="translate(27.0 56.0)"><g clip-path="url(#i4)"><polygon points="0,0 8,0 8,13 0,13 0,0" stroke="none" fill="#FFFFFF"></polygon></g></g><g transform="translate(38.0 35.0)"><g clip-path="url(#i5)"><polygon points="0,0 18,0 18,35 0,35 0,0" stroke="none" fill="#FFFFFF"></polygon></g></g><g transform="translate(59.0 46.0)"><g clip-path="url(#i6)"><polygon points="0,0 8,0 8,25 0,25 0,0" stroke="none" fill="#FFFFFF"></polygon></g></g><g transform="translate(74.0 38.0)"><g clip-path="url(#i7)"><polygon points="0,0 8,0 8,33 0,33 0,0" stroke="none" fill="#FFFFFF"></polygon></g></g></g></g></g></svg>