<?xml version="1.0" encoding="UTF-8"?><svg version="1.1" width="48px" height="44px" viewBox="0 0 48.0 44.0" xmlns="http://www.w3.org/2000/svg" xmlns:xlink="http://www.w3.org/1999/xlink"><defs><clipPath id="i0"><path d="M1440,0 L1440,820 L0,820 L0,0 L1440,0 Z"></path></clipPath><clipPath id="i1"><path d="M36,0 L32.9998873,11 L2.99988731,11 L0,0 L36,0 Z"></path></clipPath><clipPath id="i2"><path d="M24,0 L14.9998873,11 L8.99988731,11 L0,0 L24,0 Z"></path></clipPath><clipPath id="i3"><path d="M48,0 L44.9998908,11 L2.99988379,11 L0,0 L48,0 Z"></path></clipPath></defs><g transform="translate(-846.0 -354.0)"><g clip-path="url(#i0)"><g transform="translate(846.0 354.0)"><g transform="translate(6.0 16.0)"><g clip-path="url(#i1)"><polygon points="0,0 36,0 36,11 0,11 0,0" stroke="none" fill="#CDE7F7"></polygon></g></g><g transform="translate(12.0 33.0)"><g clip-path="url(#i2)"><polygon points="0,0 24,0 24,11 0,11 0,0" stroke="none" fill="#CDE7F7"></polygon></g></g><g clip-path="url(#i3)"><polygon points="0,0 48,0 48,11 0,11 0,0" stroke="none" fill="#CDE7F7"></polygon></g></g></g></g></svg>