<?xml version="1.0" encoding="UTF-8"?><svg version="1.1" width="50px" height="43px" viewBox="0 0 50.0 43.0" xmlns="http://www.w3.org/2000/svg" xmlns:xlink="http://www.w3.org/1999/xlink"><defs><clipPath id="i0"><path d="M1440,0 L1440,820 L0,820 L0,0 L1440,0 Z"></path></clipPath><clipPath id="i1"><path d="M48.0769231,13.3000334 L48.0769231,19 L0,19 L0,13.3000334 L48.0769231,13.3000334 Z M48.0769231,0 L48.0769231,5.7000334 L0,5.7000334 L0,0 L48.0769231,0 Z"></path></clipPath><clipPath id="i2"><path d="M50,0 L50,43 L0,43 L0,0 L50,0 Z M16.0714375,7.47828945 L1.78568738,7.47828945 L1.78568738,41.1305262 L16.0714375,41.1305262 L16.0714375,7.47828945 Z M33.9285625,7.47828945 L17.8571249,7.47828945 L17.8571249,41.1305262 L33.9285625,41.1305262 L33.9285625,7.47828945 Z M48.2143126,7.47828945 L35.7143126,7.47828945 L35.7143126,41.1305262 L48.2143126,41.1305262 L48.2143126,7.47828945 Z"></path></clipPath></defs><g transform="translate(-493.0 -355.0)"><g clip-path="url(#i0)"><g transform="translate(493.0 355.0)"><g transform="translate(0.9615384615384599 14.0)"><g clip-path="url(#i1)"><polygon points="0,0 48.0769231,0 48.0769231,19 0,19 0,0" stroke="none" fill="#E6F3FA"></polygon></g></g><g clip-path="url(#i2)"><polygon points="0,0 50,0 50,43 0,43 0,0" stroke="none" fill="#CDE7F7"></polygon></g></g></g></g></svg>