<?xml version="1.0" encoding="UTF-8"?><svg version="1.1" width="48px" height="40px" viewBox="0 0 48.0 40.0" xmlns="http://www.w3.org/2000/svg" xmlns:xlink="http://www.w3.org/1999/xlink"><defs><clipPath id="i0"><path d="M1440,0 L1440,820 L0,820 L0,0 L1440,0 Z"></path></clipPath><clipPath id="i1"><path d="M0,0 C25.4544152,0 27.7659807,17.3181249 45.7553992,17.3181249 C45.6466196,22.8195854 46.4488688,21.8458756 45.7553992,28.5714286 C26.2022746,27.917652 18.6828881,11.2533036 0,11.2533036 C0.0338277844,8.64345596 0.0489540265,7.10139152 0.0511944525,5.84277246 L0.0512086563,5.19861535 C0.0485819313,3.7372559 0.0278581665,2.49720948 0,0 Z"></path></clipPath><clipPath id="i2"><path d="M46.0371111,0 C46.0387206,0.340477487 46.0397621,0.660637673 46.040319,0.962802777 L46.0406198,1.81763507 C46.0374982,4.36835811 45.9981867,5.50460544 45.9943112,7.21739078 L45.9943487,7.77975728 C45.9964226,8.65902073 46.0081392,9.71467086 46.0371111,11.15832 C27.9369334,11.15832 25.6111358,30.6122449 0,30.6122449 C0.0226906988,28.6108417 0.0406772328,27.4297087 0.0481080689,26.2853471 L0.0502828898,25.8817058 C0.050569134,25.8142614 0.0508164713,25.7466253 0.0510237106,25.6786381 L0.0515096522,24.8357277 C0.049255432,23.5888058 0.0340360591,22.0560379 0,19.4539249 C9.61753893,19.4539249 16.2948932,14.5256968 23.1578881,9.62812474 L24.0951953,8.96092972 C30.355495,4.5204392 36.8866407,0.291568314 46.0371111,0 Z"></path></clipPath><clipPath id="i3"><path d="M0,0 C20.0018592,0 21.9924684,16.3143539 46.0371111,18.6742 C46.0336908,18.8593621 46.030511,19.0295054 46.0275591,19.1855796 L46.027,19.198 L46.0288114,19.1794305 C46.0341149,19.1296907 46.038385,19.2386303 46.0400561,19.6249488 L46.0404178,20.4272982 C46.0398901,20.7046471 46.0388212,21.0358726 46.0371111,21.4285714 C20.6243522,19.6605134 18.4900908,2.42560029 0,2.75437142 C0.00612589298,2.24731148 0.0116422443,1.82992896 0.01658317,1.4894738 L0.018,1.333 L0.0182927931,1.31572882 C0.0133802529,1.08333913 0.00806204932,0.731833532 0.00243179725,0.226225836 Z"></path></clipPath><clipPath id="i4"><path d="M2.09407417,0 L2.09407417,40 L0,40 L0,0 L2.09407417,0 Z M48,0 L48,40 L45.9059258,40 L45.9059258,0 L48,0 Z"></path></clipPath></defs><g transform="translate(-644.0 -356.0)"><g clip-path="url(#i0)"><g transform="translate(644.0 356.0)"><g transform="translate(0.0 2.040816326530603)"><g clip-path="url(#i1)"><polygon points="0,0 46.0408163,0 46.0408163,28.5714286 0,28.5714286 0,0" stroke="none" fill="#CDE7F7"></polygon></g></g><g transform="translate(0.0 5.102040816326509)"><g clip-path="url(#i2)"><polygon points="0,0 46.0408163,0 46.0408163,30.6122449 0,30.6122449 0,0" stroke="none" fill="#E6F3FA"></polygon></g></g><g transform="translate(0.0 16.326530612244824)"><g clip-path="url(#i3)"><polygon points="0,0 46.0408163,0 46.0408163,21.4285714 0,21.4285714 0,0" stroke="none" fill="#CDE7F7"></polygon></g></g><g clip-path="url(#i4)"><polygon points="0,0 48,0 48,40 0,40 0,0" stroke="none" fill="#CDE7F7"></polygon></g></g></g></g></svg>