<?xml version="1.0" encoding="UTF-8"?><svg version="1.1" width="40px" height="45px" viewBox="0 0 40.0 45.0" xmlns="http://www.w3.org/2000/svg" xmlns:xlink="http://www.w3.org/1999/xlink"><defs><clipPath id="i0"><path d="M1440,0 L1440,820 L0,820 L0,0 L1440,0 Z"></path></clipPath><clipPath id="i1"><path d="M18.8888889,0 L18.8888889,8.88888889 L0,8.88888889 L0,0 L18.8888889,0 Z"></path></clipPath><clipPath id="i2"><path d="M40,0 L40,8.88888889 L0,8.88888889 L0,0 L40,0 Z"></path></clipPath><clipPath id="i3"><path d="M25.5555556,0 L25.5555556,8.88888889 L0,8.88888889 L0,0 L25.5555556,0 Z"></path></clipPath><clipPath id="i4"><path d="M13.3333333,0 L13.3333333,8.88888889 L0,8.88888889 L0,0 L13.3333333,0 Z"></path></clipPath></defs><g transform="translate(-711.0 -354.0)"><g clip-path="url(#i0)"><g transform="translate(711.0 353.9999999999999)"><g transform=""><g clip-path="url(#i1)"><polygon points="0,0 18.8888889,0 18.8888889,8.88888889 0,8.88888889 0,0" stroke="none" fill="#CDE7F7"></polygon></g></g><g transform="translate(0.0 11.111111111111143)"><g clip-path="url(#i2)"><polygon points="0,0 40,0 40,8.88888889 0,8.88888889 0,0" stroke="none" fill="#CDE7F7"></polygon></g></g><g transform="translate(0.0 23.333333333333314)"><g clip-path="url(#i3)"><polygon points="0,0 25.5555556,0 25.5555556,8.88888889 0,8.88888889 0,0" stroke="none" fill="#CDE7F7"></polygon></g></g><g transform="translate(0.0 35.55555555555571)"><g clip-path="url(#i4)"><polygon points="0,0 13.3333333,0 13.3333333,8.88888889 0,8.88888889 0,0" stroke="none" fill="#CDE7F7"></polygon></g></g></g></g></g></svg>