<?xml version="1.0" encoding="UTF-8"?>
<svg width="29px" height="30px" viewBox="0 0 29 30" version="1.1" xmlns="http://www.w3.org/2000/svg" xmlns:xlink="http://www.w3.org/1999/xlink">
    <title>编组</title>
    <g id="线索评级" stroke="none" stroke-width="1" fill="none" fill-rule="evenodd">
        <g id="评级规则-新增---2" transform="translate(-1008.000000, -325.000000)" fill="#4A68CC" fill-rule="nonzero">
            <g id="编组" transform="translate(1008.000000, 325.000000)">
                <path d="M1.77635684e-15,28.08 C1.77635684e-15,29.0741125 6.4470996,29.88 14.4,29.88 C22.3529004,29.88 28.8,29.0741125 28.8,28.08 C28.8,27.0858875 22.3529004,26.28 14.4,26.28 C6.4470996,26.28 1.77635684e-15,27.0858875 1.77635684e-15,28.08 Z" id="路径" opacity="0.1"></path>
                <path d="M0.504,9.828 C0.504,10.134 0.738,10.368 1.044,10.368 C1.35,10.368 1.584,10.134 1.584,9.828 C1.584,9.522 1.35,9.288 1.044,9.288 C0.756,9.288 0.504,9.54 0.504,9.828 Z M28.98,25.83 C28.296,26.01 28.152,26.154 27.99,26.82 C27.81,26.136 27.666,25.992 27,25.83 C27.666,25.65 27.828,25.506 27.99,24.84 C28.152,25.506 28.296,25.668 28.98,25.83 Z M3.51,7.938 C2.628,8.172 2.448,8.352 2.214,9.234 C1.98,8.352 1.8,8.172 0.918,7.938 C1.8,7.704 1.98,7.506 2.214,6.642 C2.43,7.524 2.628,7.704 3.51,7.938 Z M25.11,4.842 C24.57,4.986 24.462,5.094 24.318,5.634 C24.174,5.094 24.066,4.986 23.526,4.842 C24.066,4.698 24.174,4.59 24.318,4.05 C24.444,4.59 24.57,4.698 25.11,4.842 Z M27.432,2.07 C26.028,2.43 25.74,2.736 25.362,4.14 C25.002,2.736 24.696,2.448 23.292,2.07 C24.696,1.71 24.984,1.404 25.362,0 C25.722,1.386 26.028,1.692 27.432,2.07 Z" id="形状" opacity="0.5"></path>
                <polygon id="路径" opacity="0.2" points="11.16 21.654 11.16 21.798 12.348 22.896 16.902 20.682 12.78 23.328 12.78 24.624 13.446 23.976 13.446 23.958 13.446 23.976 14.112 24.624 17.64 20.304 17.64 20.16"></polygon>
                <path d="M26.64,15.984 L26.64,15.948 C26.64,15.912 26.622,15.894 26.622,15.858 L26.622,15.84 L22.752,5.742 C22.194,4.032 20.61,2.88 18.81,2.88 L10.008,2.88 C8.208,2.88 6.624,4.032 6.066,5.742 L2.196,15.84 L2.196,15.858 C2.178,15.894 2.178,15.912 2.178,15.948 L2.178,23.22 C2.178,25.506 4.032,27.36 6.318,27.36 L22.518,27.36 C24.804,27.36 26.658,25.506 26.658,23.22 L26.658,16.02 C26.64,16.002 26.64,16.002 26.64,15.984 L26.64,15.984 Z M7.074,6.12 C7.074,6.12 7.074,6.102 7.092,6.102 C7.488,4.806 8.676,3.96 10.008,3.96 L18.792,3.96 C20.124,3.96 21.312,4.806 21.726,6.084 C21.726,6.084 21.726,6.102 21.744,6.102 L25.326,15.462 L17.1,15.462 C16.794,15.462 16.56,15.696 16.56,16.002 C16.56,17.19 15.588,18.162 14.4,18.162 C13.212,18.162 12.24,17.19 12.24,16.002 C12.24,15.696 12.006,15.462 11.7,15.462 L3.492,15.462 L7.074,6.12 Z M25.56,23.22 C25.56,24.912 24.192,26.28 22.5,26.28 L6.3,26.28 C4.608,26.28 3.24,24.912 3.24,23.22 L3.24,16.56 L11.214,16.56 C11.466,18.09 12.798,19.26 14.4,19.26 C16.002,19.26 17.334,18.09 17.586,16.56 L25.56,16.56 L25.56,23.22 Z" id="形状" opacity="0.5"></path>
                <path d="M14.4,16.92 C13.896,16.92 13.5,16.524 13.5,16.02 L13.5,14.22 L5.31,14.22 L8.262,6.516 L8.28,6.48 C8.532,5.724 9.216,5.22 10.008,5.22 L18.792,5.22 C19.584,5.22 20.268,5.724 20.52,6.48 L20.538,6.516 L23.49,14.22 L15.3,14.22 L15.3,16.02 C15.3,16.524 14.904,16.92 14.4,16.92 L14.4,16.92 Z" id="路径" opacity="0.2"></path>
            </g>
        </g>
    </g>
</svg>