<?xml version="1.0" encoding="UTF-8"?>
<svg width="14px" height="14px" viewBox="0 0 14 14" version="1.1" xmlns="http://www.w3.org/2000/svg" xmlns:xlink="http://www.w3.org/1999/xlink">
    <title>编组 2</title>
    <g id="线索评级" stroke="none" stroke-width="1" fill="none" fill-rule="evenodd">
        <g id="分析洞察-分析面板-详情" transform="translate(-1369.000000, -202.000000)" fill="currentColor" fill-rule="nonzero">
            <g id="编组" transform="translate(1369.000000, 202.000000)">
                <path d="M12.7908912,4.0273797 C12.7908912,1.80672968 10.9897782,0 8.77603171,0 C6.5622852,0 4.76115757,1.80671494 4.76115757,4.0273797 C4.76115757,5.47442849 5.52850528,6.74193155 6.67390823,7.45206921 C4.84660449,8.10507936 3.38770521,9.58031617 2.78586041,11.5268366 C2.59872035,12.1317223 2.50391643,12.7623058 2.50391643,13.4014356 C2.50391643,13.6744453 2.72443029,13.8956174 2.99656191,13.8956174 C3.26869353,13.8956174 3.48920739,13.6744159 3.48920739,13.4014356 C3.48920739,12.8617227 3.56921932,12.3295689 3.72686352,11.8195912 C4.42045689,9.57642614 6.46117963,8.06921442 8.8048078,8.06921442 C8.85431031,8.06921442 8.90111001,8.05971035 8.94616171,8.0460805 C11.0807336,7.95565192 12.7908912,6.19038648 12.7908912,4.02736496 L12.7908912,4.0273797 Z M8.7760464,7.06638109 C7.10547613,7.06638109 5.7464926,5.70317434 5.7464926,4.0273797 C5.7464926,2.35158506 7.10546144,0.98837831 8.7760464,0.98837831 C10.4466313,0.98837831 11.8056002,2.35158506 11.8056002,4.0273797 C11.8056002,5.70317434 10.4466313,7.06638109 8.7760464,7.06638109 L8.7760464,7.06638109 Z M5.49893597,7.69989686 C5.53966905,7.64886962 5.5740564,7.59206627 5.5923738,7.52500737 C5.66421855,7.26184061 5.50979127,6.98996548 5.24742795,6.91771987 C4.01466849,6.57893319 3.15380951,5.44560687 3.15380951,4.16186587 C3.15380951,3.16995116 3.65496002,2.26358776 4.49450501,1.73706269 C4.72527192,1.59227677 4.79535396,1.28742475 4.65119442,1.05610028 C4.50685861,0.824289563 4.20295431,0.754622574 3.97234898,0.898922241 C2.84283971,1.60724751 2.16848916,2.82696501 2.16848916,4.16186587 C2.16848916,5.42435903 2.78904796,6.576664 3.76987342,7.28479771 C2.12002958,7.95420789 0.805613003,9.34893277 0.268620906,11.0853766 C0.0904559272,11.6616027 0,12.2624658 0,12.8711973 C0,13.144207 0.220513865,13.3653791 0.492645483,13.3653791 C0.764777102,13.3653791 0.985290967,13.1441776 0.985290967,12.8711973 C0.985290967,12.3618827 1.06082269,11.8596409 1.20965339,11.3781754 C1.7664465,9.57741338 3.32301409,8.2148255 5.17480468,7.90692334 C5.31189873,7.88406938 5.42573982,7.8061508 5.49898004,7.69989686 L5.49893597,7.69989686 Z" id="形状"></path>
                <g id="所有人可见" transform="translate(6.500000, 9.000000)">
                    <path d="M3.69966455,1.6 C3.20387626,1.60335445 2.80268356,2.00454715 2.8,2.50033545 C2.8,2.99276929 3.20723071,3.4 3.69966455,3.4 C4.1920984,3.4 4.6,2.99276929 4.6,2.50033545 C4.59932911,2.0079016 4.1920984,1.6 3.69966455,1.6 L3.69966455,1.6 Z" id="路径"></path>
                    <path d="M3.75,0 C0.887545429,0 0.0270478054,2.36341853 0.0194995807,2.38738019 C-0.00649986022,2.46086262 -0.00649986022,2.5399361 0.0194995807,2.61341853 C0.0270478054,2.63738019 0.887545429,5 3.75,5 C6.61245457,5 7.47295219,2.63658147 7.48050042,2.61261981 C7.50649986,2.53913738 7.50649986,2.4600639 7.48050042,2.38658147 C7.47295219,2.36341853 6.61245457,0 3.75,0 Z M3.705,4.04634722 C1.99330277,4.04634722 1.33022573,2.87467521 1.17,2.52317361 C1.33094103,2.1703096 1.99473335,1 3.705,1 C5.41669723,1 6.07977427,2.17167201 6.24,2.52317361 C6.07905897,2.87603762 5.41526665,4.04634722 3.705,4.04634722 Z" id="形状"></path>
                </g>
            </g>
        </g>
    </g>
</svg>