<?xml version="1.0" standalone="no"?><!DOCTYPE svg PUBLIC "-//W3C//DTD SVG 1.1//EN" "http://www.w3.org/Graphics/SVG/1.1/DTD/svg11.dtd"><svg t="1649756318562" class="icon" viewBox="0 0 1194 1024" version="1.1" xmlns="http://www.w3.org/2000/svg" p-id="2940" xmlns:xlink="http://www.w3.org/1999/xlink" width="233.203125" height="200"><defs><style type="text/css">@font-face { font-family: feedback-iconfont; src: url("//at.alicdn.com/t/font_1031158_u69w8yhxdu.woff2?t=1630033759944") format("woff2"), url("//at.alicdn.com/t/font_1031158_u69w8yhxdu.woff?t=1630033759944") format("woff"), url("//at.alicdn.com/t/font_1031158_u69w8yhxdu.ttf?t=1630033759944") format("truetype"); }
</style></defs><path d="M955.735893 1014.101333a35.328 35.328 0 0 1-1.792-51.2L1067.52256 844.8H710.14656a36.096 36.096 0 1 1 0-72.192h358.912l-122.965333-117.077333a35.328 35.328 0 0 1-0.597334-51.2 37.973333 37.973333 0 0 1 52.821334-0.512l184.746666 175.786666a35.584 35.584 0 0 1 1.194667 50.688l-175.786667 182.101334A38.144 38.144 0 0 1 981.335893 1024a39.936 39.936 0 0 1-25.6-9.898667z m-727.125333-29.781333a464.469333 464.469333 0 0 1 93.866667-280.746667A476.245333 476.245333 0 0 1 533.335893 545.109333 297.130667 297.130667 0 0 1 697.005227 0a297.045333 297.045333 0 0 1 212.309333 504.746667 295.850667 295.850667 0 0 1-204.202667 89.514666 40.704 40.704 0 0 1-10.837333 0.597334 382.549333 382.549333 0 0 0-272.128 114.090666 388.352 388.352 0 0 0-113.834667 275.456 39.936 39.936 0 0 1-79.786666 0z m251.050667-687.104A217.258667 217.258667 0 1 0 697.005227 79.274667a217.770667 217.770667 0 0 0-217.344 217.941333zM0.00256 898.389333a417.28 417.28 0 0 1 67.242667-228.608 386.304 386.304 0 0 1 171.178666-145.066666A262.314667 262.314667 0 0 1 137.133227 315.733333 252.330667 252.330667 0 0 1 382.893227 58.026667a39.594667 39.594667 0 1 1 0 79.274666A172.885333 172.885333 0 0 0 217.005227 315.733333a172.885333 172.885333 0 0 0 165.888 179.2 39.68 39.68 0 1 1 0 79.445334 314.538667 314.538667 0 0 0-303.018667 324.266666 39.936 39.936 0 0 1-79.786667 0z" p-id="2941"></path></svg>