<?xml version="1.0" encoding="UTF-8"?>
<svg width="16px" height="13px" viewBox="0 0 16 13" version="1.1" xmlns="http://www.w3.org/2000/svg" xmlns:xlink="http://www.w3.org/1999/xlink">
    <title>编组</title>
    <g id="线索评级" stroke="none" stroke-width="1" fill="none" fill-rule="evenodd">
        <g id="分析洞察-智能分析-查看分布分析" transform="translate(-1369.000000, -622.000000)" fill="currentColor" fill-rule="nonzero">
            <g id="编组-2" transform="translate(1360.000000, 612.000000)">
                <g id="编组" transform="translate(9.000000, 10.551136)">
                    <path d="M15.4074074,12.4488636 L0.592592593,12.4488636 C0.265312741,12.4488636 0,12.2046553 0,11.9034091 L0,0.994318182 C0,0.693071955 0.265312741,0.448863636 0.592592593,0.448863636 C0.919872444,0.448863636 1.18518519,0.693071955 1.18518519,0.994318182 L1.18518519,11.3579545 L15.4074074,11.3579545 C15.7346873,11.3579545 16,11.6021629 16,11.9034091 C16,12.2046553 15.7346873,12.4488636 15.4074074,12.4488636 Z" id="路径"></path>
                    <path d="M3.125,7.27840909 C3.125,7.98131695 3.68464406,8.55113636 4.375,8.55113636 C5.06535594,8.55113636 5.625,7.98131695 5.625,7.27840909 C5.625,6.57550123 5.06535594,6.00568182 4.375,6.00568182 C3.68464406,6.00568182 3.125,6.57550123 3.125,7.27840909 Z M5.4296875,2.82386364 C5.4296875,3.35104453 5.84942055,3.77840909 6.3671875,3.77840909 C6.88495445,3.77840909 7.3046875,3.35104453 7.3046875,2.82386364 C7.3046875,2.29668274 6.88495445,1.86931818 6.3671875,1.86931818 C5.84942055,1.86931818 5.4296875,2.29668274 5.4296875,2.82386364 L5.4296875,2.82386364 Z M8.515625,7.35795455 C8.515625,8.41231634 9.35509109,9.26704545 10.390625,9.26704545 C11.4261589,9.26704545 12.265625,8.41231634 12.265625,7.35795455 C12.265625,6.30359275 11.4261589,5.44886364 10.390625,5.44886364 C9.35509109,5.44886364 8.515625,6.30359275 8.515625,7.35795455 Z M11.40625,1.11363636 C11.40625,1.72868074 11.8959386,2.22727273 12.5,2.22727273 C13.1040614,2.22727273 13.59375,1.72868074 13.59375,1.11363636 C13.59375,0.498591983 13.1040614,0 12.5,0 C11.8959386,0 11.40625,0.498591983 11.40625,1.11363636 Z" id="形状"></path>
                </g>
            </g>
        </g>
    </g>
</svg>