<?xml version="1.0" standalone="no"?><!DOCTYPE svg PUBLIC "-//W3C//DTD SVG 1.1//EN" "http://www.w3.org/Graphics/SVG/1.1/DTD/svg11.dtd"><svg t="1649756288898" class="icon" viewBox="0 0 1024 1024" version="1.1" xmlns="http://www.w3.org/2000/svg" p-id="2420" xmlns:xlink="http://www.w3.org/1999/xlink" width="200" height="200"><defs><style type="text/css">@font-face { font-family: feedback-iconfont; src: url("//at.alicdn.com/t/font_1031158_u69w8yhxdu.woff2?t=1630033759944") format("woff2"), url("//at.alicdn.com/t/font_1031158_u69w8yhxdu.woff?t=1630033759944") format("woff"), url("//at.alicdn.com/t/font_1031158_u69w8yhxdu.ttf?t=1630033759944") format("truetype"); }
</style></defs><path d="M106.576125 1024A114.540569 114.540569 0 0 1 0.227474 902.657213V222.947439a127.779294 127.779294 0 0 1 37.887621-92.817357 98.595585 98.595585 0 0 1 67.875893-27.720866h79.212922A130.851263 130.851263 0 0 1 314.738615 0.01024h395.479474a133.776948 133.776948 0 0 1 130.119841 102.398976h77.530654a100.277854 100.277854 0 0 1 69.558161 29.25685A126.462735 126.462735 0 0 1 1024.217234 223.459434v678.612642A114.686853 114.686853 0 0 1 917.868584 1024zM68.688504 223.459434v679.197779c0 32.401962 19.821516 54.929736 37.887621 54.929737h811.877596c17.55411 0 35.620215-19.748374 37.887621-49.444077h-0.585137V223.459434c0-32.401962-19.821516-54.929736-37.887621-54.929736h-82.065465A131.655826 131.655826 0 0 1 709.706094 258.055659H314.738615A131.655826 131.655826 0 0 1 188.64159 168.237129H106.576125c-18.066105 0-37.887621 21.942638-37.887621 55.222305z m182.123893-104.885808v23.039769a62.755944 62.755944 0 0 0 59.391406 50.541209h402.281692a63.341081 63.341081 0 0 0 61.658812-51.638341h-0.585137v-22.454632a62.60966 62.60966 0 0 0-59.391407-51.199488h-402.281691a61.805096 61.805096 0 0 0-61.073675 51.711483z m228.569143 640.725021L302.889591 592.461458a33.71852 33.71852 0 0 1-0.585137-48.346945l0.585137-0.585137a33.425951 33.425951 0 0 1 24.356327-9.581618 35.766499 35.766499 0 0 1 24.356328 9.874187l149.283079 141.383729 203.115683-235.00565a35.327647 35.327647 0 0 1 48.054377-6.070797 34.157373 34.157373 0 0 1 6.802217 48.346945l-2.852543 2.779401-225.7166 261.921952-1.682269 1.682269a35.693357 35.693357 0 0 1-24.868322 9.874187 36.571063 36.571063 0 0 1-24.356328-9.362192z" p-id="2421"></path></svg>