<?xml version="1.0" encoding="UTF-8"?>
<svg width="15px" height="14px" viewBox="0 0 15 14" version="1.1" xmlns="http://www.w3.org/2000/svg" xmlns:xlink="http://www.w3.org/1999/xlink">
    <title>编组</title>
    <g id="分析洞察" stroke="none" stroke-width="1" fill="none" fill-rule="evenodd">
        <g id="分析洞察-分析面板-详情备份" transform="translate(-1249.000000, -203.000000)" fill="currentColor" fill-rule="nonzero">
            <g id="编组" transform="translate(1249.000000, 203.000000)">
                <path d="M14.6435512,2.69054382 C14.3639284,2.58951499 14.0554786,2.73672844 13.9574665,3.01672262 L13.5423565,4.182884 C13.0551788,3.083113 12.2854956,2.11612275 11.3053747,1.39160168 C8.18916686,-0.917628769 3.74979577,-0.28836347 1.4148019,2.80023227 C0.284780165,4.29545898 -0.193749438,6.13707028 0.0714597399,7.98445466 C0.336668918,9.84049864 1.31967252,11.4829388 2.83309448,12.6058021 C4.10148622,13.543927 5.58608109,14 7.05914512,14 C9.21252837,14 11.3370845,13.0330097 12.7236673,11.2000581 C13.3376842,10.3889409 13.7556769,9.48256791 13.9718801,8.50114498 C14.0352997,8.20960463 13.8508063,7.92383736 13.5625355,7.86033352 C13.2742646,7.79682969 12.9859938,7.97868158 12.9225742,8.27022193 C12.7409635,9.09865836 12.3863904,9.86647748 11.8675029,10.550587 C9.88708214,13.168677 6.11938215,13.7026866 3.47305575,11.7398407 C2.19025048,10.7901697 1.36003043,9.40174485 1.13517916,7.83146814 C0.910327891,6.26985103 1.31390709,4.71400702 2.27096631,3.44970334 C4.24850434,0.831613305 8.01332164,0.294717216 10.6625307,2.2575631 C11.6224727,2.96765147 12.3402671,3.95196096 12.7294327,5.06327811 L10.8816166,4.34164358 C10.6048765,4.23484167 10.293544,4.37050896 10.1840011,4.64761662 C10.0744582,4.92472428 10.2128282,5.2364704 10.4895682,5.34615884 L13.210845,6.41129139 C13.2742646,6.43727024 13.3405669,6.44881638 13.4068692,6.44881638 C13.4155173,6.44881638 13.4241655,6.44592984 13.4328136,6.44592984 C13.4529926,6.44881638 13.4731715,6.45747599 13.4933505,6.45747599 C13.715319,6.45747599 13.922874,6.31892217 14.0007071,6.09954526 L14.9692972,3.38619947 C15.0673093,3.10043223 14.9231739,2.79157266 14.6435512,2.69054382 Z" id="路径"></path>
            </g>
        </g>
    </g>
</svg>