<?xml version="1.0" standalone="no"?><!DOCTYPE svg PUBLIC "-//W3C//DTD SVG 1.1//EN" "http://www.w3.org/Graphics/SVG/1.1/DTD/svg11.dtd"><svg t="1649756293726" class="icon" viewBox="0 0 1024 1024" version="1.1" xmlns="http://www.w3.org/2000/svg" p-id="2550" xmlns:xlink="http://www.w3.org/1999/xlink" width="200" height="200"><defs><style type="text/css">@font-face { font-family: feedback-iconfont; src: url("//at.alicdn.com/t/font_1031158_u69w8yhxdu.woff2?t=1630033759944") format("woff2"), url("//at.alicdn.com/t/font_1031158_u69w8yhxdu.woff?t=1630033759944") format("woff"), url("//at.alicdn.com/t/font_1031158_u69w8yhxdu.ttf?t=1630033759944") format("truetype"); }
</style></defs><path d="M94.427429 1024A95.085714 95.085714 0 0 1 0 928.914286V664.868571a95.085714 95.085714 0 0 1 94.427429-95.085714h263.314285a95.085714 95.085714 0 0 1 94.354286 95.085714v264.045715A95.085714 95.085714 0 0 1 357.522286 1024z m-14.628572-359.131429v264.045715a14.628571 14.628571 0 0 0 14.628572 14.628571h263.314285a14.628571 14.628571 0 0 0 14.628572-14.628571V664.868571a14.628571 14.628571 0 0 0-14.628572-14.628571h-263.314285a14.628571 14.628571 0 0 0-14.628572 14.628571z m525.604572 305.005715a40.009143 40.009143 0 0 1 0-80.018286h378.733714a40.009143 40.009143 0 0 1 0 80.018286z m0-258.340572a40.082286 40.082286 0 0 1 0-80.457143h378.733714a40.082286 40.082286 0 0 1 0 80.457143zM94.427429 453.924571A95.085714 95.085714 0 0 1 0 359.131429V95.085714A95.085714 95.085714 0 0 1 94.427429 0h263.314285a95.085714 95.085714 0 0 1 94.354286 95.085714v264.045715a95.085714 95.085714 0 0 1-94.354286 95.085714z m-14.628572-359.131428V359.131429a14.628571 14.628571 0 0 0 14.628572 14.628571h263.314285a14.628571 14.628571 0 0 0 14.628572-14.628571V95.085714a14.628571 14.628571 0 0 0-14.628572-14.628571h-263.314285a14.628571 14.628571 0 0 0-14.628572 14.628571z m525.604572 301.056a40.082286 40.082286 0 0 1 0-80.457143h378.733714a40.082286 40.082286 0 0 1 0 80.457143z m0-257.682286a40.082286 40.082286 0 0 1 0-80.457143h378.733714a40.082286 40.082286 0 0 1 0 80.457143z" p-id="2551"></path></svg>