<?xml version="1.0" encoding="UTF-8"?><svg version="1.1" width="12px" height="12px" viewBox="0 0 12.0 12.0" xmlns="http://www.w3.org/2000/svg" xmlns:xlink="http://www.w3.org/1999/xlink"><defs><clipPath id="i0"><path d="M1440,0 L1440,1030 L0,1030 L0,0 L1440,0 Z"></path></clipPath><clipPath id="i1"><path d="M4.59325898,0 C5.06985981,0 5.4544999,0.37438382 5.4544999,0.836269893 L5.4544999,6.80006624 C5.4544999,7.26195231 5.06985981,7.63634478 4.59325898,7.63634478 L0.861240919,7.63634478 C0.384657368,7.63634478 0,7.26194368 0,6.80006624 L0,1.39382349 C0,0.624119923 0.643025321,0 1.43541017,0 L4.59325898,0 Z"></path></clipPath><clipPath id="i2"><path d="M4.01917612,0 C4.81150048,0 5.45458629,0.642774749 5.45458629,1.43541017 L5.45458629,4.59325897 C5.45458629,5.0690044 5.0698598,5.45456902 4.59332809,5.45456902 L0.861258188,5.45456902 C0.384726482,5.45456902 0,5.0690044 0,4.5933281 L0,0.86124092 C0,0.38555598 0.384726495,0 0.861258188,0 L4.01917612,0 Z"></path></clipPath><clipPath id="i3"><path d="M4.59325898,0 C5.06985981,0 5.4544999,0.382168903 5.4544999,0.85372369 L5.4544999,2.4189486 C5.4544999,2.89051203 5.06985981,3.27274141 4.59325898,3.27274141 L1.43541017,3.27274141 C0.643025321,3.27274141 0,2.63553114 0,1.84981676 L0,0.85372369 C0,0.382160262 0.384657368,0 0.861240919,0 L4.59325898,0 Z"></path></clipPath><clipPath id="i4"><path d="M4.59332809,0 C5.0698598,0 5.45458629,0.385581903 5.45458629,0.861258201 L5.45458629,4.01917612 C5.45458629,4.81181155 4.81150048,5.4545863 4.01917612,5.4545863 L0.861258188,5.4545863 C0.384726482,5.4545863 0,5.06902168 0,4.5933281 L0,0.861258201 C0,0.385581903 0.384726495,0 0.861258188,0 L4.59332809,0 Z"></path></clipPath></defs><g transform="translate(-413.0 -360.0)"><g clip-path="url(#i0)"><g transform="translate(252.0 349.9999999999999)"><g transform="translate(161.0 10.000000000000002)"><g clip-path="url(#i1)"><polygon points="0,0 5.4544999,0 5.4544999,7.63634478 0,7.63634478 0,0" stroke="none" fill="#50ACE2"></polygon></g><g transform="translate(6.545413708297929 0.0)"><g clip-path="url(#i2)"><polygon points="0,0 5.45458629,0 5.45458629,5.45456902 0,5.45456902 0,0" stroke="none" fill="#0589D6"></polygon></g></g><g transform="translate(0.0 8.727258585327466)"><g clip-path="url(#i3)"><polygon points="0,0 5.4544999,0 5.4544999,3.27274141 0,3.27274141 0,0" stroke="none" fill="#026EAE"></polygon></g></g><g transform="translate(6.545413708297929 6.545413702426956)"><g clip-path="url(#i4)"><polygon points="0,0 5.45458629,0 5.45458629,5.4545863 0,5.4545863 0,0" stroke="none" fill="#2C9CDD"></polygon></g></g></g></g></g></g></svg>