<?xml version="1.0" encoding="UTF-8"?>
<svg width="18px" height="18px" viewBox="0 0 18 18" version="1.1" xmlns="http://www.w3.org/2000/svg" xmlns:xlink="http://www.w3.org/1999/xlink">
    <title>编组</title>
    <g id="线索评级" stroke="none" stroke-width="1" fill="none" fill-rule="evenodd">
        <g id="分析洞察-智能分析-新建事件分析" transform="translate(-1367.000000, -510.000000)" fill="currentColor" fill-rule="nonzero">
            <g id="编组-2" transform="translate(1360.000000, 503.000000)">
                <g id="编组" transform="translate(7.000000, 7.000000)">
                    <path d="M18,6.43064517 L18,2.57174999 C18,1.15141935 16.8485806,0 15.42825,0 L2.57174999,0 C1.15141935,0 0,1.15141935 0,2.57174999 L0,15.42825 C0,16.8485806 1.15141935,18 2.57174999,18 L15.42825,18 C16.8485806,18 18,16.8485806 18,15.42825 L18,6.43064517 Z M1.66209677,1.66209677 C1.90318458,1.41976129 2.2311518,1.28387049 2.57298387,1.28467385 L15.4317339,1.28467385 C15.7728569,1.28508095 16.0998234,1.42109319 16.3405911,1.66274579 C16.5813587,1.90439839 16.7161705,2.23186171 16.7153266,2.57298387 L16.7153266,5.14596775 L1.28467385,5.14596775 L1.28467385,2.57298387 C1.28387049,2.2311518 1.41976129,1.90318458 1.66209677,1.66209677 Z M7.06935484,10.9306452 L7.06935484,6.43064517 L10.9306452,6.43064517 L10.9306452,10.9306452 L7.06935484,10.9306452 Z M10.9306452,12.2153226 L10.9306452,16.7153226 L7.06935484,16.7153226 L7.06935484,12.2153226 L10.9306452,12.2153226 Z M5.78467742,10.9306452 L1.28467742,10.9306452 L1.28467742,6.43064517 L5.78467742,6.43064517 L5.78467742,10.9306452 Z M1.66209677,16.3400806 C1.41987402,16.0999577 1.28394211,15.7728062 1.28467445,15.4317339 L1.28467445,12.2153226 L5.78467445,12.2153226 L5.78467445,16.7153373 L2.57298387,16.7153373 C2.23141688,16.7169568 1.90340136,16.5818301 1.66209677,16.3400806 Z M16.7153226,15.4317339 C16.7159794,15.7723637 16.5809554,16.0992312 16.3400933,16.3400933 C16.0992312,16.5809554 15.7723637,16.7159794 15.4317339,16.7153226 L12.2153226,16.7153226 L12.2153226,12.2153226 L16.7153226,12.2153226 L16.7153226,15.4317339 L16.7153226,15.4317339 Z M16.7153226,10.9306452 L12.2153226,10.9306452 L12.2153226,6.43064517 L16.7153226,6.43064517 L16.7153226,10.9306452 Z" id="形状"></path>
                </g>
            </g>
        </g>
    </g>
</svg>