<?xml version="1.0" standalone="no"?><!DOCTYPE svg PUBLIC "-//W3C//DTD SVG 1.1//EN" "http://www.w3.org/Graphics/SVG/1.1/DTD/svg11.dtd"><svg t="1652755813411" class="icon" viewBox="0 0 1024 1024" version="1.1" xmlns="http://www.w3.org/2000/svg" p-id="3174" xmlns:xlink="http://www.w3.org/1999/xlink" width="200" height="200"><defs><style type="text/css">@font-face { font-family: element-icons; src: url("chrome-extension://moombeodfomdpjnpocobemoiaemednkg/fonts/element-icons.woff") format("woff"), url("chrome-extension://moombeodfomdpjnpocobemoiaemednkg/fonts/element-icons.ttf ") format("truetype"); }
@font-face { font-family: feedback-iconfont; src: url("//at.alicdn.com/t/font_1031158_u69w8yhxdu.woff2?t=1630033759944") format("woff2"), url("//at.alicdn.com/t/font_1031158_u69w8yhxdu.woff?t=1630033759944") format("woff"), url("//at.alicdn.com/t/font_1031158_u69w8yhxdu.ttf?t=1630033759944") format("truetype"); }
</style></defs><path d="M515.802286 113.365819A398.633861 398.633861 0 1 1 113.07725 511.99968a400.679449 400.679449 0 0 1 402.725036-398.633861z m0 167.866023A230.831763 230.831763 0 1 0 748.935335 511.99968a231.982406 231.982406 0 0 0-233.133049-230.767838z" fill="#3E72F5" p-id="3175"></path><path d="M515.546588 0.602809a59.769509 59.769509 0 0 1 67.632236 67.632236v135.328397A59.769509 59.769509 0 0 1 515.546588 271.195679a59.769509 59.769509 0 0 1-67.632236-67.632237V68.235045A59.769509 59.769509 0 0 1 515.546588 0.602809z" fill="#3E72F5" p-id="3176"></path><path d="M515.546588 752.803682a59.769509 59.769509 0 0 1 67.632236 67.632236v135.328397A59.769509 59.769509 0 0 1 515.546588 1023.396552a59.769509 59.769509 0 0 1-67.632236-67.632237v-135.328397a59.769509 59.769509 0 0 1 67.632236-67.632236z" fill="#3E72F5" p-id="3177"></path><path d="M247.638552 509.506621a63.477137 63.477137 0 0 1-61.815097 64.947402H62.129337a65.011327 65.011327 0 0 1 0-129.894805h123.694118a63.477137 63.477137 0 0 1 61.815097 64.947403zM1023.107983 506.821787a63.477137 63.477137 0 0 1-61.815097 64.947403h-123.694118a65.011327 65.011327 0 0 1 0-129.894806h123.694118A63.477137 63.477137 0 0 1 1023.107983 506.821787z" fill="#3E72F5" p-id="3178"></path><path d="M380.218191 511.99968A135.328397 135.328397 0 1 0 515.546588 376.671283 135.328397 135.328397 0 0 0 380.218191 511.99968z" fill="#A5BDF8" p-id="3179"></path></svg>