<?xml version="1.0" encoding="UTF-8"?>
<svg width="20px" height="16px" viewBox="0 0 20 16" version="1.1" xmlns="http://www.w3.org/2000/svg" xmlns:xlink="http://www.w3.org/1999/xlink">
    <title>上传</title>
    <g id="线索评级" stroke="none" stroke-width="1" fill="none" fill-rule="evenodd">
        <g id="线索评级-评级模型-新增-2" transform="translate(-1070.000000, -376.000000)" fill="#9099A6" fill-rule="nonzero">
            <g id="编组-36备份" transform="translate(1040.000000, 352.000000)">
                <path d="M40,32 L44,35.6048438 L42.6660382,36.8073083 L40.9427292,35.2538772 L40.9427292,40 L39.0572708,40 L39.0572708,35.2521776 L37.3339618,36.8073083 L36,35.6048438 L40,32 Z M39.9998873,24 C43.2289197,24 45.9454498,26.1962965 46.3176579,29.1075509 C48.6506754,29.6850103 50.1932914,31.6959475 49.9804196,33.8822865 C49.7675478,36.0686254 47.8602859,37.8028499 45.451849,38 L45.451849,36.3392626 C46.5897483,36.1917646 47.551363,35.4983608 47.9669576,34.5256613 C48.3825523,33.5529617 48.1874217,32.4524088 47.4565925,31.6471589 C46.7257633,30.841909 45.5730205,30.4573339 44.4415871,30.6413005 C44.8309583,28.9959852 44.0795593,27.3010166 42.5431884,26.3589871 C41.0068175,25.4169575 38.9938657,25.4169575 37.4574948,26.3589871 C35.9211239,27.3010166 35.1697249,28.9959852 35.5590961,30.6413005 C33.8330569,30.3471043 32.171063,31.3786057 31.8469289,32.9452232 C31.5227948,34.5118408 32.6592634,36.0203284 34.3853026,36.3145247 L34.5488342,36.3392626 L34.5488342,38 C32.1402827,37.8031429 30.2327222,36.0690445 30.0196212,33.8826463 C29.8065203,31.6962481 31.3490469,29.6851298 33.6821168,29.1075509 C34.0539348,26.1961124 36.7706985,23.9997666 39.9998873,24 Z" id="上传"></path>
            </g>
        </g>
    </g>
</svg>