<?xml version="1.0" encoding="UTF-8"?>
<svg width="20px" height="20px" viewBox="0 0 20 20" version="1.1" xmlns="http://www.w3.org/2000/svg" xmlns:xlink="http://www.w3.org/1999/xlink">
    <title>添加</title>
    <g id="线索评级" stroke="none" stroke-width="1" fill="none" fill-rule="evenodd">
        <g id="分析洞察-智能分析-新建事件分析" transform="translate(-337.000000, -362.000000)">
            <g id="添加" transform="translate(337.000000, 362.000000)">
                <rect id="路径" x="0" y="0" width="20" height="20"></rect>
                <path d="M0,20 L20,20 L20,0 L0,0 L0,20 Z" id="路径"></path>
                <path d="M10,0 C15.525,0 20,4.475 20,10 C20,15.525 15.525,20 10,20 C4.475,20 0,15.525 0,10 C0,4.475 4.475,0 10,0 Z" id="路径" fill="#D3D7DE" fill-rule="nonzero"></path>
                <path d="M4,9.06800461 L4,10.9191437 L9.0138588,10.9191437 L9.0138588,16 L11.0014229,16 L11.0014229,10.9191437 L16,10.9191437 L16,9.06800461 L11.0014229,9.06800461 L11.0014229,4 L9.0138588,4 L9.0138588,9.06800461 L4,9.06800461 Z" id="路径" fill="#FFFFFF"></path>
            </g>
        </g>
    </g>
</svg>