<?xml version="1.0" encoding="UTF-8"?>
<svg width="13px" height="13px" viewBox="0 0 13 13" version="1.1" xmlns="http://www.w3.org/2000/svg" xmlns:xlink="http://www.w3.org/1999/xlink">
    <title>编组</title>
    <g id="分析洞察" stroke="none" stroke-width="1" fill="none" fill-rule="evenodd">
        <g id="分析洞察-智能分析-新建事件分析" transform="translate(-292.000000, -195.000000)" fill="currentColor" fill-rule="nonzero">
            <g id="编组" transform="translate(292.343152, 195.686349)">
                <path d="M2.41002416,1.75758216 C2.41195468,1.75653811 1.7560755,2.41249602 1.7574314,2.4101736 C1.87403522,2.53090113 3.07045211,3.7274726 5.34668207,5.999888 L1.7574314,9.58960241 C1.75650851,9.59285609 2.42435688,10.2496633 2.41002416,10.2427128 L5.99973424,6.65247944 L9.58944433,10.2427128 C9.58451163,10.2498661 10.2505301,9.57541762 10.2425686,9.58960241 L6.65232489,5.999888 L10.2425686,2.4101736 C10.2309195,2.38977973 9.59756394,1.74148239 9.58944433,1.75758216 L5.99973424,5.34683505 C3.72732157,3.07060234 2.53075155,1.87418472 2.41002416,1.75758216 Z" id="路径" transform="translate(6.000000, 6.000000) rotate(45.000000) translate(-6.000000, -6.000000) "></path>
            </g>
        </g>
    </g>
</svg>