<?xml version="1.0" encoding="UTF-8"?>
<svg width="14px" height="10px" viewBox="0 0 14 10" version="1.1" xmlns="http://www.w3.org/2000/svg" xmlns:xlink="http://www.w3.org/1999/xlink">
    <title>所有人可见</title>
    <g id="线索评级" stroke="none" stroke-width="1" fill="none" fill-rule="evenodd">
        <g id="分析洞察-智能分析-查看/编辑分布分析备份" transform="translate(-1293.000000, -148.000000)" fill="currentColor" fill-rule="nonzero">
            <g id="所有人可见" transform="translate(1293.000000, 148.000000)">
                <path d="M6.99925457,3 C5.8975028,3.00745434 5.00596347,3.89899366 5,5.00074543 C5,6.09504286 5.90495714,7 6.99925457,7 C8.09355199,7 9,6.09504286 9,5.00074543 C8.99850913,3.90644801 8.09355199,3 6.99925457,3 L6.99925457,3 Z" id="路径"></path>
                <path d="M7,0 C1.65675147,0 0.0504892368,4.72683706 0.0363992172,4.77476038 C-0.0121330724,4.92172524 -0.0121330724,5.0798722 0.0363992172,5.22683706 C0.0504892368,5.27476038 1.65675147,10 7,10 C12.3432485,10 13.9495108,5.27316294 13.9636008,5.22523962 C14.0121331,5.07827476 14.0121331,4.9201278 13.9636008,4.77316294 C13.9495108,4.72683706 12.3432485,0 7,0 Z M7,8.57188498 C3.25362035,8.57188498 1.80234834,5.82428115 1.45166341,5 C1.80391389,4.17252396 3.25675147,1.42811502 7,1.42811502 C10.7463796,1.42811502 12.1976517,4.17571885 12.5483366,5 C12.1960861,5.82747604 10.7432485,8.57188498 7,8.57188498 Z" id="形状"></path>
            </g>
        </g>
    </g>
</svg>