<?xml version="1.0" encoding="UTF-8"?>
<svg width="15px" height="15px" viewBox="0 0 15 15" version="1.1" xmlns="http://www.w3.org/2000/svg" xmlns:xlink="http://www.w3.org/1999/xlink">
    <title>路径 15</title>
    <g id="线索评级" stroke="none" stroke-width="1" fill="none" fill-rule="evenodd">
        <g id="分析洞察-分析列表" transform="translate(-590.000000, -155.000000)" fill="currentColor">
            <g id="组-9242" transform="translate(578.000000, 146.000000)">
                <path d="M16.74,16.875 C17.51,16.875 18.13,17.495 18.13,18.255 L18.13,18.255 L18.13,21.615 C18.13,22.385 17.51,23.005 16.74,23.005 L16.74,23.005 L13.38,23.005 C12.62,23.005 12,22.385 12,21.615 L12,21.615 L12,18.255 C12,17.495 12.62,16.875 13.38,16.875 L13.38,16.875 Z M24.615,16.875 C25.385,16.875 26.005,17.495 26.005,18.255 L26.005,18.255 L26.005,21.615 C26.005,22.385 25.385,23.005 24.615,23.005 L24.615,23.005 L21.255,23.005 C20.495,23.005 19.875,22.385 19.875,21.615 L19.875,21.615 L19.875,18.255 C19.875,17.495 20.495,16.875 21.255,16.875 L21.255,16.875 Z M16.7450002,17.75 L13.3850002,17.75 C13.1050002,17.75 12.8750002,17.98 12.8750002,18.26 L12.8750002,21.62 C12.8750002,21.9 13.1050002,22.13 13.3850002,22.13 L16.7450002,22.13 C17.0250002,22.13 17.2450002,21.9 17.2450002,21.62 L17.2450002,18.26 C17.2450002,17.98 17.0250002,17.75 16.7450002,17.75 Z M24.62,17.75 L21.26,17.75 C20.98,17.75 20.75,17.98 20.75,18.26 L20.75,21.62 C20.75,21.9 20.98,22.13 21.26,22.13 L24.62,22.13 C24.9,22.13 25.13,21.9 25.13,21.62 L25.13,18.26 C25.13,17.98 24.9,17.75 24.62,17.75 Z M16.74,9 C17.51,9 18.13,9.62 18.13,10.38 L18.13,10.38 L18.13,13.74 C18.13,14.51 17.51,15.13 16.74,15.13 L16.74,15.13 L13.38,15.13 C12.62,15.13 12,14.51 12,13.74 L12,13.74 L12,10.38 C12,9.62 12.62,9 13.38,9 L13.38,9 Z M24.615,9 C25.385,9 26.005,9.62 26.005,10.38 L26.005,10.38 L26.005,13.74 C26.005,14.51 25.385,15.13 24.615,15.13 L24.615,15.13 L21.255,15.13 C20.495,15.13 19.875,14.51 19.875,13.74 L19.875,13.74 L19.875,10.38 C19.875,9.62 20.495,9 21.255,9 L21.255,9 Z M16.745,9.875 L13.385,9.875 C13.105,9.875 12.875,10.105 12.875,10.385 L12.875,13.745 C12.875,14.025 13.105,14.255 13.385,14.255 L16.745,14.255 C17.025,14.255 17.245,14.025 17.255,13.745 L17.255,10.385 C17.255,10.105 17.025,9.875 16.745,9.875 Z M24.62,9.875 L21.26,9.875 C20.98,9.875 20.75,10.105 20.75,10.385 L20.75,13.745 C20.75,14.025 20.98,14.255 21.26,14.255 L24.62,14.255 C24.9,14.255 25.13,14.025 25.13,13.745 L25.13,10.385 C25.13,10.105 24.9,9.875 24.62,9.875 Z" id="路径-15"></path>
            </g>
        </g>
    </g>
</svg>