<?xml version="1.0" standalone="no"?><!DOCTYPE svg PUBLIC "-//W3C//DTD SVG 1.1//EN" "http://www.w3.org/Graphics/SVG/1.1/DTD/svg11.dtd"><svg t="1652755803799" class="icon" viewBox="0 0 1024 1024" version="1.1" xmlns="http://www.w3.org/2000/svg" p-id="3038" xmlns:xlink="http://www.w3.org/1999/xlink" width="200" height="200"><defs><style type="text/css">@font-face { font-family: element-icons; src: url("chrome-extension://moombeodfomdpjnpocobemoiaemednkg/fonts/element-icons.woff") format("woff"), url("chrome-extension://moombeodfomdpjnpocobemoiaemednkg/fonts/element-icons.ttf ") format("truetype"); }
@font-face { font-family: feedback-iconfont; src: url("//at.alicdn.com/t/font_1031158_u69w8yhxdu.woff2?t=1630033759944") format("woff2"), url("//at.alicdn.com/t/font_1031158_u69w8yhxdu.woff?t=1630033759944") format("woff"), url("//at.alicdn.com/t/font_1031158_u69w8yhxdu.ttf?t=1630033759944") format("truetype"); }
</style></defs><path d="M894.875919 0H379.742504A64.548348 64.548348 0 0 0 315.194157 64.548348v64.548347h515.133415v708.151775h64.548347a64.548348 64.548348 0 0 0 64.548348-64.548348V64.548348A64.548348 64.548348 0 0 0 894.875919 0z" fill="#A5BDF8" p-id="3039"></path><path d="M708.751072 186.688862H129.06931A64.548348 64.548348 0 0 0 64.520962 251.237209v708.151775a64.548348 64.548348 0 0 0 64.548348 64.548348h579.681762a64.548348 64.548348 0 0 0 64.548348-64.548348v-708.151775a64.548348 64.548348 0 0 0-64.548348-64.548347z m-264.46022 525.411016H259.607376a34.467564 34.467564 0 1 1 0-68.935129h185.435496a34.467564 34.467564 0 1 1 0 68.935129z m129.096695-193.01836H259.607376a34.467564 34.467564 0 1 1 0-68.935129h313.842839a34.467564 34.467564 0 1 1 0 68.935129z" fill="#3E72F5" p-id="3040"></path></svg>