<?xml version="1.0" standalone="no"?><!DOCTYPE svg PUBLIC "-//W3C//DTD SVG 1.1//EN" "http://www.w3.org/Graphics/SVG/1.1/DTD/svg11.dtd"><svg t="1653032523535" class="icon" viewBox="0 0 1024 1024" version="1.1" xmlns="http://www.w3.org/2000/svg" p-id="4020" xmlns:xlink="http://www.w3.org/1999/xlink" width="200" height="200"><defs><style type="text/css">@font-face { font-family: feedback-iconfont; src: url("//at.alicdn.com/t/font_1031158_u69w8yhxdu.woff2?t=1630033759944") format("woff2"), url("//at.alicdn.com/t/font_1031158_u69w8yhxdu.woff?t=1630033759944") format("woff"), url("//at.alicdn.com/t/font_1031158_u69w8yhxdu.ttf?t=1630033759944") format("truetype"); }
</style></defs><path d="M840.07509 775.572066a182.502602 182.502602 0 0 1 178.833779 142.870784 16.296399 16.296399 0 0 1-15.869792 19.922561h-325.885314a16.296399 16.296399 0 0 1-15.869792-19.922561 182.502602 182.502602 0 0 1 178.833779-142.870784z m4.607358-260.443755a118.639489 118.639489 0 1 1-118.639489 118.63949 118.639489 118.639489 0 0 1 118.639489-118.63949z" fill="#164DF2" p-id="4021"></path><path d="M561.372542 1023.857513a21.330365 21.330365 0 0 1-4.266073-18.045489c24.487259-109.723397 8.318842 23.122116 4.266073 18.045489zM895.875324 0a127.982189 127.982189 0 0 1 127.982189 127.982189v256.220343a42.66073 42.66073 0 0 1-42.66073 42.66073l-6.313788-0.469268a42.66073 42.66073 0 0 1-36.389602-42.191462V224.267456a10.665182 10.665182 0 0 0-10.622522-10.665182H95.986642a10.665182 10.665182 0 0 0-10.665183 10.665182v523.020546a42.66073 42.66073 0 0 0 42.66073 42.66073h383.946568a42.66073 42.66073 0 0 1 42.660729 42.66073l-0.469268 6.313788a42.66073 42.66073 0 0 1-42.148801 36.432263h-383.946567a127.982189 127.982189 0 0 1-127.982189-127.982189V128.195493a127.982189 127.982189 0 0 1 127.982189-127.982189zM450.113359 551.475253a32.038208 32.038208 0 1 1 0 63.991095h-213.303648a32.038208 32.038208 0 1 1 0-63.991095z m85.32146-191.973284a32.038208 32.038208 0 1 1 0 63.991095h-298.625108a32.038208 32.038208 0 1 1 0-63.991095z m-87.411836-295.25491a41.594211 41.594211 0 1 0 42.66073 42.66073 41.850176 41.850176 0 0 0-6.527091-21.330365 41.252926 41.252926 0 0 0-36.176299-21.330365z m-149.312554 0a41.594211 41.594211 0 1 0 42.66073 42.66073 41.850176 41.850176 0 0 0-6.527091-21.330365 41.252926 41.252926 0 0 0-36.176299-21.330365z m-149.312554 0a42.66073 42.66073 0 0 0-38.735942 25.255152 41.978158 41.978158 0 0 0-3.967448 17.362917 42.66073 42.66073 0 0 0 85.321459 0 44.751105 44.751105 0 0 0-42.660729-42.66073z" fill="#80B7F9" p-id="4022"></path></svg>