<?xml version="1.0" encoding="utf-8"?>
<!-- Generator: Adobe Illustrator 23.0.0, SVG Export Plug-In . SVG Version: 6.00 Build 0)  -->
<svg version="1.1" id="图层_1" xmlns="http://www.w3.org/2000/svg" xmlns:xlink="http://www.w3.org/1999/xlink" x="0px" y="0px"
	 viewBox="0 0 200 200" style="enable-background:new 0 0 200 200;" xml:space="preserve">
<style type="text/css">
	.st0{fill:#036FAE;}
	.st1{fill:#FFFFFF;}
</style>
<path class="st0" d="M100,190.9c50.2,0,90.9-40.7,90.9-90.9S150.2,9.1,100,9.1S9.1,49.8,9.1,100c0,0,0,0,0,0
	C9.1,150.2,49.8,190.9,100,190.9L100,190.9z"/>
<path class="st0" d="M100,200C44.8,200,0,155.2,0,100S44.8,0,100,0s100,44.8,100,100C199.9,155.2,155.2,199.9,100,200z M100,18.2
	c-45.2,0-81.8,36.6-81.8,81.8s36.6,81.8,81.8,81.8s81.8-36.6,81.8-81.8l0,0C181.8,54.8,145.2,18.2,100,18.2z"/>
<path d="M100,100"/>
<path class="st1" d="M100,54.5c5,0,9.1,4.1,9.1,9.1l0,0v27.3h27.3c5,0,9.1,4.1,9.1,9.1l0,0c0,5-4.1,9.1-9.1,9.1h0h-27.3v27.3
	c0,5-4.1,9.1-9.1,9.1l0,0c-5,0-9.1-4.1-9.1-9.1l0,0v-27.3H63.6c-5,0-9.1-4.1-9.1-9.1s4.1-9.1,9.1-9.1h27.3V63.6
	C90.9,58.6,95,54.5,100,54.5L100,54.5z"/>
</svg>
