<?xml version="1.0" encoding="UTF-8"?><svg version="1.1" width="16px" height="16px" viewBox="0 0 16.0 16.0" xmlns="http://www.w3.org/2000/svg" xmlns:xlink="http://www.w3.org/1999/xlink"><defs><clipPath id="i0"><path d="M1440,0 L1440,2170 L0,2170 L0,0 L1440,0 Z"></path></clipPath><clipPath id="i1"><path d="M15.1148668,0 L15.6781067,0.311947166 C15.8779691,0.422566023 16,0.620228065 16,0.833340584 C16,1.0464531 15.8779691,1.24411514 15.6781067,1.354734 L8.34745321,5.41143587 C8.13410475,5.52949246 7.86589523,5.52949246 7.65254677,5.41143587 L0.321893258,1.354734 C0.122030843,1.24411514 0,1.0464531 0,0.833340584 C0,0.620228065 0.122030843,0.422566023 0.321893258,0.311947166 L0.884828427,0 L7.65254677,3.74475475 C7.85065607,3.85447792 8.09600681,3.86225577 8.30082133,3.76836606 L8.34745321,3.74475475 L15.1148668,0 Z"></path></clipPath><clipPath id="i2"><path d="M15.1148667,0 L15.6781067,0.311947166 C15.8779691,0.422566026 16,0.620228061 16,0.833340571 C16,1.04645308 15.8779691,1.24411512 15.6781067,1.35473398 L8.34745319,5.41143587 C8.13410473,5.52949246 7.86589521,5.52949246 7.65254674,5.41143587 L0.321893236,1.35473398 C0.122030834,1.24411512 0,1.04645308 0,0.833340571 C0,0.620228061 0.122030834,0.422566026 0.321893236,0.311947166 L0.884828405,0 L7.65254674,3.74475472 C7.85065605,3.85447789 8.09600679,3.86225574 8.30082131,3.76836604 L8.34745319,3.74475472 L15.1148667,0 Z"></path></clipPath><clipPath id="i3"><path d="M8.34745321,0.0885424434 L15.677802,4.14524431 C15.8776644,4.25586317 15.9996952,4.45352521 15.9996952,4.66663773 C15.9996952,4.87975025 15.8776644,5.07741229 15.677802,5.18803114 L8.34745321,9.24473303 C8.13410475,9.36278963 7.86589523,9.36278963 7.65254677,9.24473303 L0.321893258,5.18803114 C0.122030843,5.07741229 0,4.87975025 0,4.66663773 C0,4.45352521 0.122030843,4.25586317 0.321893258,4.14524431 L7.65254677,0.0885424434 C7.86589523,-0.0295141478 8.13410475,-0.0295141478 8.34745321,0.0885424434 Z"></path></clipPath></defs><g transform="translate(-668.0 -220.0)"><g clip-path="url(#i0)"><g transform="translate(668.0000000000001 220.00000000000034)"><g transform="translate(0.0 10.50002168979336)"><g clip-path="url(#i1)"><polygon points="0,0 16,0 16,5.49997831 0,5.49997831 0,0" stroke="none" fill="#026EAE"></polygon></g></g><g transform="translate(2.2055473891668953e-08 7.166659428596176)"><g clip-path="url(#i2)"><polygon points="0,0 16,0 16,5.49997831 0,5.49997831 0,0" stroke="none" fill="#50ACE2"></polygon></g></g><g clip-path="url(#i3)"><polygon points="0,0 15.9996952,0 15.9996952,9.33327548 0,9.33327548 0,0" stroke="none" fill="#AFD9F1"></polygon></g></g></g></g></svg>