<?xml version="1.0" standalone="no"?><!DOCTYPE svg PUBLIC "-//W3C//DTD SVG 1.1//EN" "http://www.w3.org/Graphics/SVG/1.1/DTD/svg11.dtd"><svg t="1649756341348" class="icon" viewBox="0 0 1025 1024" version="1.1" xmlns="http://www.w3.org/2000/svg" p-id="3590" xmlns:xlink="http://www.w3.org/1999/xlink" width="200.1953125" height="200"><defs><style type="text/css">@font-face { font-family: feedback-iconfont; src: url("//at.alicdn.com/t/font_1031158_u69w8yhxdu.woff2?t=1630033759944") format("woff2"), url("//at.alicdn.com/t/font_1031158_u69w8yhxdu.woff?t=1630033759944") format("woff"), url("//at.alicdn.com/t/font_1031158_u69w8yhxdu.ttf?t=1630033759944") format("truetype"); }
</style></defs><path d="M498.369936 1020.634974L22.029636 780.526697a34.008635 34.008635 0 0 1-14.62737-51.195795A35.325098 35.325098 0 0 1 23.711783 716.824501a34.008635 34.008635 0 0 1 28.523372 2.998611l438.821096 220.946422a51.195795 51.195795 0 0 0 46.149352 0l438.455413-220.434464a33.42354 33.42354 0 0 1 45.052299 14.042275c0 0.585095 0.585095 0.585095 0.585095 1.097052a33.789224 33.789224 0 0 1-15.212465 45.564258L529.087413 1020.634974a60.337901 60.337901 0 0 1-15.212464 3.364295 37.15352 37.15352 0 0 1-15.505013-3.364295z m0-237.25594L22.029636 543.782715A34.081772 34.081772 0 1 1 51.796334 482.786583l441.234612 219.410548a46.588173 46.588173 0 0 0 40.517815 0l441.30775-223.067391a34.081772 34.081772 0 1 1 29.839834 61.28868L527.624676 779.941602a18.942444 18.942444 0 0 1-14.042275 3.364295 34.666867 34.666867 0 0 1-15.212465 0z m0-238.938087L22.541594 304.259533a33.277267 33.277267 0 0 1-16.309518-44.394068 32.911582 32.911582 0 0 1 16.309518-16.309517L499.247579 3.447671a34.666867 34.666867 0 0 1 29.839834 0l476.705985 240.108277a32.545898 32.545898 0 0 1 0.585095 59.021437L529.672508 544.36781a71.308428 71.308428 0 0 1-15.724423 3.364295 37.15352 37.15352 0 0 1-15.578149-3.364295z m-4.1688-466.247416l-381.042986 194.032062 380.311618 193.446967a43.88211 43.88211 0 0 0 41.102909 0l380.311617-193.446967-381.262396-194.032062a43.88211 43.88211 0 0 0-39.420762 0z" p-id="3591"></path></svg>