<?xml version="1.0" standalone="no"?><!DOCTYPE svg PUBLIC "-//W3C//DTD SVG 1.1//EN" "http://www.w3.org/Graphics/SVG/1.1/DTD/svg11.dtd"><svg t="1649996408718" class="icon" viewBox="0 0 1024 1024" version="1.1" xmlns="http://www.w3.org/2000/svg" p-id="1544" xmlns:xlink="http://www.w3.org/1999/xlink" width="200" height="200"><defs><style type="text/css">@font-face { font-family: feedback-iconfont; src: url("//at.alicdn.com/t/font_1031158_u69w8yhxdu.woff2?t=1630033759944") format("woff2"), url("//at.alicdn.com/t/font_1031158_u69w8yhxdu.woff?t=1630033759944") format("woff"), url("//at.alicdn.com/t/font_1031158_u69w8yhxdu.ttf?t=1630033759944") format("truetype"); }
</style></defs><path d="M720 262.4h208v83.2h-83.2v540.8a41.6 41.6 0 0 1-41.6 41.6h-582.4a41.6 41.6 0 0 1-41.6-41.6V345.6H96V262.4h208V137.6a41.6 41.6 0 0 1 41.6-41.6h332.8a41.6 41.6 0 0 1 41.6 41.6V262.4z m41.6 83.2H262.4v499.2h499.2V345.6zM570.88 595.2l73.472 73.6-58.816 58.752L512 654.08l-73.6 73.6-58.752-58.88L453.12 595.2 379.52 521.6l58.88-58.752L512 536.32l73.6-73.6 58.752 58.88L570.88 595.2zM387.2 179.2v83.2h249.6V179.2h-249.6z" p-id="1545"></path></svg>