<?xml version="1.0" encoding="UTF-8"?>
<svg width="18px" height="18px" viewBox="0 0 18 18" version="1.1" xmlns="http://www.w3.org/2000/svg" xmlns:xlink="http://www.w3.org/1999/xlink">
    <title>业务分类</title>
    <g id="线索评级" stroke="none" stroke-width="1" fill="none" fill-rule="evenodd">
        <g id="分析洞察-分析看板" transform="translate(-24.000000, -97.000000)">
            <g id="业务分类" transform="translate(24.000000, 97.000000)">
                <rect id="路径" x="0" y="0" width="18" height="18"></rect>
                <path d="M0,18 L18,18 L18,0 L0,0 L0,18 Z" id="路径"></path>
                <g id="编组" transform="translate(2.000000, 2.000000)" fill="currentColor" fill-rule="nonzero">
                    <path d="M0,13.44 C0,13.1307225 0.2507225,12.88 0.56,12.88 L13.44,12.88 C13.7492775,12.88 14,13.1307225 14,13.44 C14,13.7492775 13.7492775,14 13.44,14 L0.56,14 C0.2507225,14 0,13.7492775 0,13.44 Z M8.12,0 L0.56,0 C0.2507225,0 0,0.2507225 0,0.56 L0,10.92 C0,11.2292775 0.2507225,11.48 0.56,11.48 L13.44,11.48 C13.7492775,11.48 14,11.2292775 14,10.92 L14,4.76 L12.88,4.76 L12.88,10.36 L1.12,10.36 L1.12,1.12 L8.12,1.12 L8.12,0 Z" id="形状"></path>
                    <path d="M3,7.17272582 L6.67763233,3.23065567 C6.89552168,3.00220698 6.90463031,3.2152829 7.12251966,3.44373159 L7.51702893,3.85735954 L3.78903597,8 L3,7.17272582 Z" id="路径"></path>
                    <path d="M8.81393121,5.81393152 C8.56585935,6.06202283 8.16361606,6.06202283 7.9155442,5.81393152 L6.18606879,4.08445897 C5.95568943,3.89213371 6.21110819,3.72540673 6.45919991,3.47731543 C6.70729162,3.22924397 6.84634495,2.93739653 7.08447566,3.18605359 L8.81393121,4.91552614 C9.06202293,5.16361744 9.06202293,5.56584021 8.81393121,5.81393152 Z" id="路径"></path>
                    <path d="M12.975215,0.979309758 C13.1972228,1.20334611 13.1972228,1.56658726 12.975215,1.79060569 L8.9704422,5.83197273 C8.74845223,6.05600909 8.3885002,6.05600909 8.16649247,5.83197273 C7.94450251,5.60793638 7.94450251,5.24471315 8.16649247,5.0206768 L12.1712653,0.979309758 C12.393273,0.755291328 12.7532073,0.755291328 12.975215,0.979309758 Z M8.03099972,0 C8.10948991,0 8.17311877,0.0642102862 8.17311877,0.143417688 L8.17311877,1.00392382 C8.17311877,1.08313122 8.10948991,1.14734151 8.03099972,1.14734151 L8.03099972,0 Z M12.8630476,4.8762014 C12.8630476,4.796994 12.9266764,4.73278371 13.0051666,4.73278371 L13.8578809,4.73278371 C13.9363711,4.73278371 14,4.796994 14,4.8762014 L12.8630476,4.8762014 Z" id="形状"></path>
                    <path d="M13.8343555,0.00252451784 C13.9310201,-0.0159749512 14.0157413,0.0700192282 13.9975119,0.16811603 L13.5848541,2.38837127 C13.5640405,2.50032496 13.4281932,2.54288791 13.3488151,2.46233371 L11.5736164,0.660850451 C11.4942383,0.58027853 11.5361973,0.442418502 11.6465164,0.421296503 L13.8343555,0.00252451784 Z M4.23501896,7.86593293 C4.23501896,8.49225691 3.73468901,9 3.11750948,9 C2.50032995,9 2,8.49225691 2,7.86593293 C2,7.23960895 2.50032995,6.73186586 3.11750948,6.73186586 C3.73468901,6.73186586 4.23501896,7.23960895 4.23501896,7.86593293 Z" id="形状"></path>
                </g>
            </g>
        </g>
    </g>
</svg>