<?xml version="1.0" standalone="no"?><!DOCTYPE svg PUBLIC "-//W3C//DTD SVG 1.1//EN" "http://www.w3.org/Graphics/SVG/1.1/DTD/svg11.dtd"><svg t="1654919042843" class="icon" viewBox="0 0 1024 1024" version="1.1" xmlns="http://www.w3.org/2000/svg" p-id="2027" xmlns:xlink="http://www.w3.org/1999/xlink" width="200" height="200"><defs><style type="text/css">@font-face { font-family: feedback-iconfont; src: url("//at.alicdn.com/t/font_1031158_u69w8yhxdu.woff2?t=1630033759944") format("woff2"), url("//at.alicdn.com/t/font_1031158_u69w8yhxdu.woff?t=1630033759944") format("woff"), url("//at.alicdn.com/t/font_1031158_u69w8yhxdu.ttf?t=1630033759944") format("truetype"); }
</style></defs><path d="M671.33993 354.77083H182.424476a31.224484 31.224484 0 1 1 0-61.79084H671.413056a30.493231 30.493231 0 0 1 30.493231 31.224484 29.030726 29.030726 0 0 1-30.493231 30.493231zM510.537495 532.465199H182.424476a31.224484 31.224484 0 1 1 0-61.717715h328.186144c17.25756 0 31.224484 14.040049 31.224484 31.297609a32.028862 32.028862 0 0 1-31.224484 30.493232zM411.599025 708.916439H182.424476a31.224484 31.224484 0 0 1-31.224483-31.224483 30.493231 30.493231 0 0 1 31.224483-30.566357h229.174549a30.493231 30.493231 0 0 1 31.297609 30.566357 31.224484 31.224484 0 0 1-31.297609 31.224483z m601.455221 252.135879l-95.940334-95.940334-8.190029-6.654398c21.864451-30.858858 33.345116-67.860237 32.760114-105.665994a186.761901 186.761901 0 1 0-83.36279 154.73304 37.952007 37.952007 0 0 0 6.654398 9.652533l96.01346 96.01346a36.855128 36.855128 0 0 0 52.065181-52.138307z m-257.400897-95.940334a112.393517 112.393517 0 1 1 112.320392-112.320392 109.322256 109.322256 0 0 1-112.320392 112.320392z" p-id="2028"></path><path d="M573.425214 950.741657H145.788724a72.686503 72.686503 0 0 1-72.832754-73.125255V146.363854a73.271505 73.271505 0 0 1 72.832754-73.125255h655.641035a72.686503 72.686503 0 0 1 76.489016 73.125255v365.626274A38.610135 38.610135 0 0 0 950.751529 511.990128V146.363854c0-79.706528-33.491367-146.25051-116.561656-146.25051H151.638744a145.373007 145.373007 0 0 0-106.762872 40.730767A146.469885 146.469885 0 0 0 0.123216 146.436979V877.616402c0.950628 39.707013 17.550061 77.51277 46.288286 104.934741s67.055859 42.266397 106.689747 41.242644H573.425214a37.074504 37.074504 0 0 0 37.878882-36.562628 39.414512 39.414512 0 0 0-37.878882-36.562627z" p-id="2029"></path></svg>