<?xml version="1.0" standalone="no"?><!DOCTYPE svg PUBLIC "-//W3C//DTD SVG 1.1//EN" "http://www.w3.org/Graphics/SVG/1.1/DTD/svg11.dtd"><svg t="1649756322590" class="icon" viewBox="0 0 1024 1024" version="1.1" xmlns="http://www.w3.org/2000/svg" p-id="3070" xmlns:xlink="http://www.w3.org/1999/xlink" width="200" height="200"><defs><style type="text/css">@font-face { font-family: feedback-iconfont; src: url("//at.alicdn.com/t/font_1031158_u69w8yhxdu.woff2?t=1630033759944") format("woff2"), url("//at.alicdn.com/t/font_1031158_u69w8yhxdu.woff?t=1630033759944") format("woff"), url("//at.alicdn.com/t/font_1031158_u69w8yhxdu.ttf?t=1630033759944") format("truetype"); }
</style></defs><path d="M486.342416 1015.86819L408.454708 940.796472a65.727754 65.727754 0 0 1-17.407935-51.199808l28.095895-171.839356a37.759858 37.759858 0 0 1 34.815869-30.527885h104.575608a36.031865 36.031865 0 0 1 34.303872 30.527885L614.341936 889.596664a70.399736 70.399736 0 0 1-17.407935 52.031805l-67.647746 73.087726a30.271886 30.271886 0 0 1-22.015917 9.279965 29.823888 29.823888 0 0 1-20.927922-8.12797z m-17.983933-240.255099l-15.743941 93.823649a47.93582 47.93582 0 0 0 17.407935 51.199808l15.167943 14.719944c19.199928 20.927922 30.911884 10.75196 42.175842-0.575997l0.575998-0.575998 10.68796-11.327958c22.463916-19.199928 17.983933-33.343875 17.407935-52.031805L543.9422 775.613091c-2.815989-17.535934-8.447968-30.527886-34.303871-30.527885h-6.399976c-26.7519 0-31.295883 12.991951-34.623871 30.527885z m429.37439 203.519237V966.396376a389.24654 389.24654 0 0 0-233.535124-332.094755A385.598554 385.598554 0 0 1 511.94232 671.99748a321.534794 321.534794 0 0 1-143.359462-33.215875l-33.151876-20.351924-27.519897-18.62393A336.510738 336.510738 0 0 1 511.94232 0a337.726734 337.726734 0 0 1 212.991201 594.109772A460.798272 460.798272 0 0 1 959.94064 966.396376v7.93597a30.655885 30.655885 0 0 1-28.671892 33.343875h-3.071989a30.719885 30.719885 0 0 1-30.207887-28.479893zM247.751311 334.078747v2.81599A267.518997 267.518997 0 1 0 518.342296 67.263748h-3.391987A267.646996 267.646996 0 0 0 247.751311 334.078747zM63.944 968.956366v-6.783974a465.150256 465.150256 0 0 1 169.151366-327.358773l6.399976-4.543983a35.199868 35.199868 0 0 1 18.55993-5.11998c23.039914 0 36.543863 10.75196 36.543863 30.527885a36.863862 36.863862 0 0 1-13.503949 28.287894l-5.055981 3.391987a355.326668 355.326668 0 0 0-139.391478 275.198968v3.839986a37.823858 37.823858 0 0 1-35.967865 37.887858A38.399856 38.399856 0 0 1 63.944 968.956366z" p-id="3071"></path></svg>