<?xml version="1.0" standalone="no"?><!DOCTYPE svg PUBLIC "-//W3C//DTD SVG 1.1//EN" "http://www.w3.org/Graphics/SVG/1.1/DTD/svg11.dtd"><svg t="1649758526931" class="icon" viewBox="0 0 1024 1024" version="1.1" xmlns="http://www.w3.org/2000/svg" p-id="1303" xmlns:xlink="http://www.w3.org/1999/xlink" width="200" height="200"><defs><style type="text/css">@font-face { font-family: feedback-iconfont; src: url("//at.alicdn.com/t/font_1031158_u69w8yhxdu.woff2?t=1630033759944") format("woff2"), url("//at.alicdn.com/t/font_1031158_u69w8yhxdu.woff?t=1630033759944") format("woff"), url("//at.alicdn.com/t/font_1031158_u69w8yhxdu.ttf?t=1630033759944") format("truetype"); }
</style></defs><path d="M265.625238 0.12656a127.95254 127.95254 0 1 1-84.415771 224.011865 438.658262 438.658262 0 0 0 469.096033 703.92881 36.702509 36.702509 0 0 1 23.033988 69.608207A511.746879 511.746879 0 0 1 141.406229 158.959832 127.95254 127.95254 0 0 1 265.625238 0z m246.413051 0a511.746879 511.746879 0 0 1 452.833025 750.249908 127.95254 127.95254 0 1 1-58.407614-46.764059 438.658262 438.658262 0 0 0-377.909282-629.82771h-30.944012A36.575949 36.575949 0 0 1 495.269039 0.696082h8.416265z m347.281671 767.588679a54.800643 54.800643 0 1 0 54.800643 54.800643 54.800643 54.800643 0 0 0-54.800643-54.737363zM512.038289 256.09492a182.753183 182.753183 0 0 1 109.601286 329.056977 182.0571 182.0571 0 0 1 73.151897 146.113954 36.575949 36.575949 0 1 1-73.088617 0 109.664566 109.664566 0 0 0-219.329131 0 36.575949 36.575949 0 0 1-73.088617 0 182.500062 182.500062 0 0 1 73.151897-146.303794 182.753183 182.753183 0 0 1 109.601285-329.056977z m0 73.088617a109.664566 109.664566 0 1 0 109.664566 109.664566A109.664566 109.664566 0 0 0 512.038289 329.183537zM265.625238 73.215177a54.800643 54.800643 0 1 0 54.800642 54.800643 54.800643 54.800643 0 0 0-54.800642-54.800643z" p-id="1304"></path></svg>