<?xml version="1.0" encoding="UTF-8"?>
<svg width="18px" height="15px" viewBox="0 0 18 15" version="1.1" xmlns="http://www.w3.org/2000/svg" xmlns:xlink="http://www.w3.org/1999/xlink">
    <title>编组</title>
    <g id="线索评级" stroke="none" stroke-width="1" fill="none" fill-rule="evenodd">
        <g id="分析洞察-智能分析-新建事件分析" transform="translate(-1216.000000, -512.000000)" fill="currentColor" fill-rule="nonzero">
            <g id="编组-14" transform="translate(1208.000000, 503.000000)">
                <g id="编组" transform="translate(8.000000, 9.000000)">
                    <path d="M17.3333333,15 L0.666666667,15 C0.298476833,15 0,14.6947396 0,14.3181818 L0,0.681818182 C0,0.305260398 0.298476833,0 0.666666667,0 C1.0348565,0 1.33333333,0.305260398 1.33333333,0.681818182 L1.33333333,13.6363636 L17.3333333,13.6363636 C17.7015232,13.6363636 18,13.941624 18,14.3181818 C18,14.6947396 17.7015232,15 17.3333333,15 Z" id="路径"></path>
                    <path d="M3.67611024,8.99919028 C3.39403128,8.99959176 3.14143568,8.82534275 3.04272094,8.56225686 C2.94400619,8.29917098 3.01998345,8.00271221 3.23323565,7.81887967 L7.47362487,4.15897575 C7.73011792,3.93738574 8.11201337,3.93997622 8.36545009,4.16502517 L11.9968867,7.38802596 L16.8300258,2.21442073 C17.0841265,1.94249992 17.5115203,1.92715222 17.7846366,2.18014067 C18.0577529,2.43312912 18.0731681,2.85865216 17.8190674,3.13057299 L12.5356275,8.78544382 C12.2857769,9.05354791 11.8662692,9.07298144 11.5924936,8.82913414 L7.90974833,5.56244303 L4.11763461,8.83585572 C3.99505262,8.94151983 3.83825068,8.99952609 3.67611024,8.99919028 Z" id="路径"></path>
                </g>
            </g>
        </g>
    </g>
</svg>