<svg xmlns="http://www.w3.org/2000/svg" xmlns:xlink="http://www.w3.org/1999/xlink" width="87" height="88" viewBox="0 0 87 88" fill="none"><defs><rect id="path_0" x="0" y="0" width="86.06500053405762" height="87.99999999999999" /></defs><g opacity="1" transform="translate(9.5367431640625e-7 0)  rotate(0 43.03250026702881 43.99999999999999)"><mask id="bg-mask-0" fill="white"><use xlink:href="#path_0"></use></mask><g mask="url(#bg-mask-0)" ><path id="路径 1" fill-rule="evenodd" style="fill:#FFFFFF" transform="translate(3.3374615384615396 0)  rotate(0 39.67742307692308 43.294499358635775)" opacity="0" d="M0,22.61L0,60.72L39.66,86.59L79.35,60.72L79.35,22.61L39.66,0L0,22.61Z " /><g opacity="1" transform="translate(3.3374615384615396 0)  rotate(0 39.67742307692308 39.32875575341432)"><path id="路径 2" fill-rule="evenodd" style="fill:#E6F3FA" transform="translate(38.83892307692308 0)  rotate(0 6.562461538461542 4.862144420131291)" opacity="1" d="M13.12,6.85L0.98,0L0,3.12L11.48,9.72L13.12,6.85L13.12,6.85Z " /><path id="路径 3" fill-rule="evenodd" style="fill:#E6F3FA" transform="translate(56.058769230769244 10.1492492265902)  rotate(0 6.560807692307691 4.742624311476647)" opacity="1" d="M0 2.88L1.64 0L13.12 6.61L11.48 9.49L0 2.88Z" /><path id="路径 4" fill-rule="evenodd" style="fill:#E6F3FA" transform="translate(76.04715384615385 22.131140119218287)  rotate(0 1.6538461538461537 5.273824794386175)" opacity="1" d="M3.31,0.48L2.48,0L0,2.88L0,10.55L3.31,10.55L3.31,0.48Z " /><path id="路径 5" fill-rule="evenodd" style="fill:#E6F3FA" transform="translate(76.04715384615385 39.31879574435976)  rotate(0 1.6538461538461537 6.640006036369123)" opacity="1" d="M3.31,0L0,0L0,13.28L3.31,13.28L3.31,0Z " /><path id="路径 8" fill-rule="evenodd" style="fill:#E6F3FA" transform="translate(16.32676923076923 68.65102241002037)  rotate(0 6.451653846153849 5.003244548404133)" opacity="1" d="M0,2.79L11.1,10.01L12.9,7.22L1.8,0L0,2.78L0,2.79Z " /><path id="路径 9" fill-rule="evenodd" style="fill:#E6F3FA" transform="translate(0 57.93073266430241)  rotate(0 5.910846153846154 4.654644231494753)" opacity="1" d="M1.8,0L0,2.79L10.02,9.31L11.82,6.52L1.8,0L1.8,0Z " /><path id="路径 10" fill-rule="evenodd" style="fill:#E6F3FA" transform="translate(0 38.70127518297744)  rotate(0 1.6538461538461537 6.640006036369123)" opacity="1" d="M0,13.28L3.31,13.28L3.31,0L0,0L0,13.28Z " /><path id="路径 11" fill-rule="evenodd" style="fill:#E6F3FA" transform="translate(0 22.131140119218287)  rotate(0 1.6538461538461537 4.965064513695017)" opacity="1" d="M3.31,2.88L0.83,0L0,0.48L0,9.93L3.31,9.93L3.31,2.88L3.31,2.88Z " /><path id="路径 12" fill-rule="evenodd" style="fill:#E6F3FA" transform="translate(10.710307692307685 9.833848939862676)  rotate(0 6.5608076923076935 4.744284312985737)" opacity="1" d="M1.64 9.49L0 6.61L11.48 0L13.12 2.88L1.64 9.49Z" /><path id="路径 13" fill-rule="evenodd" style="fill:#E6F3FA" transform="translate(27.923538461538463 0.0033200030181887996)  rotate(0 6.281307692307692 4.7027842752584315)" opacity="1" d="M11.82,0L0,6.53L1.65,9.41L12.56,3.12L11.82,0L11.82,0Z " /></g><path id="减去顶层" fill-rule="evenodd" style="fill:#AFD9F1" transform="translate(16.637692214672384 14.873613547390107)  rotate(0 26.44499969482422 28.219999313354492)" opacity="1" d="M0 41.59L0 15.03L26.44 0L52.89 15.03L52.89 31.1265C52.8808 31.1264 52.8716 31.1264 52.8623 31.1264C51.5923 31.1264 50.3223 32.4064 49.8923 33.2564L49.5755 33.7885L49.5755 19.4486L28.0955 30.8386L28.0955 51.7186L44.3536 42.5602L40.9357 48.3016L26.44 56.44L0 41.59Z M48.402 16.3215L26.362 28.0015L4.472 16.3315L26.442 3.78148L48.402 16.3215Z M3.30438 19.4652L24.7844 30.9152L24.7844 51.7252L3.30438 39.6152L3.30438 19.4652Z " /><g opacity="1" transform="translate(0 18.279936618124196)  rotate(0 43 34.860031690937895)"><path id="路径 18" fill-rule="evenodd" style="fill:#AFD9F1" transform="translate(38.058307692307686 59.760054327322116)  rotate(0 5.034307692307692 4.980004527276843)" opacity="1" d="M0,9.96L10.07,9.96L10.07,0L0,0L0,9.96Z " /><path id="路径 19" fill-rule="evenodd" style="fill:#AFD9F1" transform="translate(0 0)  rotate(0 4.989653846153845 4.980004527276843)" opacity="1" d="M0,9.96L9.98,9.96L9.98,0L0,0L0,9.96Z " /><path id="路径 20" fill-rule="evenodd" style="fill:#AFD9F1" transform="translate(76.07692307692308 0)  rotate(0 4.961538461538462 4.980004527276843)" opacity="1" d="M0,9.96L9.92,9.96L9.92,0L0,0L0,9.96Z " /></g><path id="路径 2" fill-rule="evenodd" style="fill:#FDE3B3" transform="translate(57 54)  rotate(0 14.532500267028809 13.5)" opacity="1" d="M26.5025 27C26.5025 27 26.5025 27 26.5025 27Z M0.4425 22.24C-0.1475 23.25 -0.1475 24.67 0.4425 25.69C0.8925 26.52 1.6925 27 2.5825 27L26.5025 27C27.3725 27 28.1725 26.52 28.6225 25.69C29.2125 24.68 29.2125 23.25 28.6225 22.24L16.6725 1.31C16.2025 0.49 15.4025 6.67967e-10 14.5325 6.67967e-10C13.6325 6.67967e-10 12.8625 0.49 12.4025 1.31L0.4425 22.24Z M4.64654 22.954Z M14.5365 5.65405L4.64654 22.954L24.4265 22.954L14.5365 5.65405Z " /><path id="路径 3" fill-rule="evenodd" style="fill:#FDE3B3" transform="translate(69.88 62.39999999999998)  rotate(0 2 4)" opacity="1" d="M4 1.98L4 6.02C4 7.12 3.11 8 2 8C0.89 8 0 7.12 0 6.02L0 1.98C0 0.88 0.89 0 2 0C3.11 0 4 0.88 4 1.98Z" /><path id="路径 4" fill-rule="evenodd" style="fill:#FDE3B3" transform="translate(69.88 72.39999999999998)  rotate(0 2 2)" opacity="1" d="M2 0C3.1 0 4 0.9 4 2C4 3.1 3.1 4 2 4C0.9 4 0 3.1 0 2C0 0.9 0.9 0 2 0Z" /></g></g></svg>