<?xml version="1.0" encoding="UTF-8"?><svg version="1.1" width="46px" height="46px" viewBox="0 0 46.0 46.0" xmlns="http://www.w3.org/2000/svg" xmlns:xlink="http://www.w3.org/1999/xlink"><defs><clipPath id="i0"><path d="M1440,0 L1440,820 L0,820 L0,0 L1440,0 Z"></path></clipPath><clipPath id="i1"><path d="M20.4058591,0 L20.4058591,23.6366941 L44.0425532,23.6366941 C43.192324,35.0299565 33.6696017,44.0425532 22.1063174,44.0425532 C9.86282591,44.0425532 0,34.1797273 0,21.9362357 C0,10.3728917 9.01259673,0.850229183 20.4058591,0 Z"></path></clipPath><clipPath id="i2"><path d="M0,0 C12.0405112,0.698016653 21.8126216,10.4700658 22.5106383,22.5106383 L0,22.5106383 Z"></path></clipPath></defs><g transform="translate(-773.0 -353.0)"><g clip-path="url(#i0)"><g transform="translate(773.0 353.0)"><g transform="translate(0.0 1.957446808510639)"><g clip-path="url(#i1)"><polygon points="0,0 44.0425532,0 44.0425532,44.0425532 0,44.0425532 0,0" stroke="none" fill="#CDE7F7"></polygon></g></g><g transform="translate(23.489361702127663 0.0)"><g clip-path="url(#i2)"><polygon points="0,0 22.5106383,0 22.5106383,22.5106383 0,22.5106383 0,0" stroke="none" fill="#CDE7F7"></polygon></g></g></g></g></g></svg>