<?xml version="1.0" encoding="UTF-8"?><svg version="1.1" width="60px" height="51px" viewBox="0 0 60.0 51.0" xmlns="http://www.w3.org/2000/svg" xmlns:xlink="http://www.w3.org/1999/xlink"><defs><clipPath id="i0"><path d="M1440,0 L1440,820 L0,820 L0,0 L1440,0 Z"></path></clipPath><clipPath id="i1"><path d="M21.8181818,0 L21.8181818,0.537634409 L9.91245791,15 L7.7037037,12.8494624 L7.64983165,12.7956989 L7.64983165,12.8494624 L5.44107744,15 L5.44107744,10.6451613 L19.2861953,1.77419355 L3.93265993,9.24731183 L0,5.48387097 L0,5 L21.8181818,0 Z"></path></clipPath><clipPath id="i2"><path d="M48.9430262,40 C50.6357307,40 52,41.3450413 52,43 C52,44.6549587 50.6294147,46 48.9430262,46 L3.05697377,46 C1.37058535,46 0,44.6549587 0,43 C0,41.3450413 1.37058535,40 3.05697377,40 Z M43,19 C44.6549587,19 46,20.3459683 46,22.0020675 L46,33.9979325 C46,35.6540317 44.6549587,37 43,37 L40,37 C38.3450413,37 37,35.6602343 37,34.0041351 L37,22.0020675 C37,20.3459683 38.3450413,19 40,19 Z M27,0 C28.6549587,0 30,1.38575405 30,3.09080627 L30,33.9091937 C30,35.6142459 28.6549587,37 27,37 L24,37 C22.3450413,37 21,35.6206319 21,33.9091937 L21,3.09080627 C21,1.38575405 22.3450413,0 24,0 Z M12,12 C13.6549587,12 15,13.4021711 15,15.1274231 L15,33.8725769 C15,35.5978289 13.6549587,37 12,37 L9,37 C7.33884298,37 6,35.6042905 6,33.8790385 L6,15.1274231 C6,13.4021711 7.34504132,12 9,12 Z"></path></clipPath></defs><g transform="translate(-1064.0 -351.0)"><g clip-path="url(#i0)"><g transform="translate(1063.999999999999 351.0)"><g transform="translate(38.0 0.0)"><g clip-path="url(#i1)"><polygon points="0,0 21.8181818,0 21.8181818,15 0,15 0,0" stroke="none" fill="#CDE7F7"></polygon></g></g><g transform="translate(0.0 5.0)"><g clip-path="url(#i2)"><polygon points="0,0 52,0 52,46 0,46 0,0" stroke="none" fill="#CDE7F7"></polygon></g></g></g></g></g></svg>