<?xml version="1.0" encoding="UTF-8"?><svg version="1.1" width="57px" height="58px" viewBox="0 0 57.0 58.0" xmlns="http://www.w3.org/2000/svg" xmlns:xlink="http://www.w3.org/1999/xlink"><defs><clipPath id="i0"><path d="M1440,0 L1440,820 L0,820 L0,0 L1440,0 Z"></path></clipPath><clipPath id="i1"><path d="M28.4822852,0.000508734766 C43.72378,0.0326856165 56,1.58713876 56,3.5 C56,5.43299662 43.463973,7 28,7 C12.536027,7 0,5.43299662 0,3.5 C0,1.56700338 12.536027,0 28,0 Z"></path></clipPath><clipPath id="i2"><path d="M54.0530973,48.1610738 C54.3716814,49.452349 54.6548673,49.766443 56,50.0805369 C54.6548673,50.4295302 54.3716814,50.7087248 54.0530973,52 C53.699115,50.6738255 53.4159292,50.3946309 52.1061947,50.0805369 C53.4159292,49.7315436 53.7345133,49.452349 54.0530973,48.1610738 Z M1.0619469,18.0080537 C1.66371681,18.0080537 2.12389381,18.461745 2.12389381,19.0550336 C2.12389381,19.6483221 1.66371681,20.1020134 1.0619469,20.1020134 C0.460176991,20.1020134 0,19.6483221 0,19.0550336 C0,18.4966443 0.495575221,18.0080537 1.0619469,18.0080537 Z M3.36283186,12.8778523 C3.78761062,14.5879195 4.17699115,14.9369128 5.91150442,15.390604 C4.17699115,15.8442953 3.82300885,16.1932886 3.36283186,17.9033557 C2.90265487,16.1932886 2.54867257,15.8442953 0.814159292,15.390604 C2.54867257,14.9369128 2.90265487,14.5530201 3.36283186,12.8778523 Z M46.8318584,7.85234899 C47.079646,8.89932886 47.3274336,9.10872483 48.3893805,9.38791946 C47.3274336,9.66711409 47.1150442,9.87651007 46.8318584,10.9234899 C46.5486726,9.87651007 46.3362832,9.66711409 45.2743363,9.38791946 C46.3362832,9.10872483 46.5486726,8.89932886 46.8318584,7.85234899 Z M48.8849558,0 C49.5929204,2.68724832 50.1946903,3.28053691 52.9557522,4.01342282 C50.1946903,4.7114094 49.6283186,5.30469799 48.8849558,8.02684564 C48.1769912,5.30469799 47.5752212,4.74630872 44.8141593,4.01342282 C47.5752212,3.31543624 48.1415929,2.72214765 48.8849558,0 Z"></path></clipPath><clipPath id="i3"><path d="M13,0 L13,0.290322581 L5.92222222,9 L4.58611111,7.69354839 L3.25,9 L3.25,6.38709677 L11.5194444,1.05241935 L2.38333333,5.51612903 L0,3.30241935 L0,3.01209677 L13,0 Z"></path></clipPath><clipPath id="i4"><path d="M32.6117647,0 C36.1411765,0 39.2470588,2.25882353 40.3411765,5.61176471 L47.9294118,25.4117647 L47.9294118,25.4470588 C47.9294118,25.5176471 47.9647059,25.5529412 47.9647059,25.6235294 L47.9647059,25.6941176 C47.9647059,25.7294118 47.9647059,25.7294118 48,25.7647059 L48,39.8823529 C48,44.3647059 44.3647059,48 39.8823529,48 L8.11764706,48 C3.63529412,48 0,44.3647059 0,39.8823529 L0,25.6235294 C0,25.5529412 0,25.5176471 0.0352941176,25.4470588 L0.0352941176,25.4117647 L7.62352941,5.61176471 C8.71764706,2.25882353 11.8235294,0 15.3529412,0 Z M17.7176471,26.8235294 L2.08235294,26.8235294 L2.08235294,39.8823529 C2.08235294,43.2 4.76470588,45.8823529 8.08235294,45.8823529 L39.8470588,45.8823529 C43.1647059,45.8823529 45.8470588,43.2 45.8470588,39.8823529 L45.8470588,26.8235294 L30.2117647,26.8235294 C29.7176471,29.8235294 27.1058824,32.1176471 23.9647059,32.1176471 C20.8235294,32.1176471 18.2117647,29.8235294 17.7176471,26.8235294 Z M32.5764706,2.11764706 L15.3529412,2.11764706 C12.7411765,2.11764706 10.4117647,3.77647059 9.63529412,6.31764706 C9.6,6.31764706 9.6,6.35294118 9.6,6.35294118 L2.57647059,24.6705882 L18.6705882,24.6705882 C19.2705882,24.6705882 19.7294118,25.1294118 19.7294118,25.7294118 C19.7294118,28.0588235 21.6352941,29.9647059 23.9647059,29.9647059 C26.2941176,29.9647059 28.2,28.0588235 28.2,25.7294118 C28.2,25.1294118 28.6588235,24.6705882 29.2588235,24.6705882 L45.3882353,24.6705882 L38.3647059,6.31764706 C38.3294118,6.31764706 38.3294118,6.28235294 38.3294118,6.28235294 C37.5176471,3.77647059 35.1882353,2.11764706 32.5764706,2.11764706 Z"></path></clipPath><clipPath id="i5"><path d="M25.9554455,0 C27.480198,0 28.7970297,0.990769231 29.2821782,2.47692308 L29.3168317,2.54769231 L35,17.6923077 L19.2326733,17.6923077 L19.2326733,21.2307692 C19.2326733,22.2215385 18.470297,23 17.5,23 C16.529703,23 15.7673267,22.2215385 15.7673267,21.2307692 L15.7673267,17.6923077 L0,17.6923077 L5.68316832,2.54769231 L5.71782178,2.47692308 C6.2029703,0.990769231 7.51980198,0 9.04455446,0 L25.9554455,0 Z"></path></clipPath></defs><g transform="translate(-1159.0 -351.0)"><g clip-path="url(#i0)"><g transform="translate(1158.9999999999995 351.0)"><g transform="translate(0.0 51.0)"><g clip-path="url(#i1)"><polygon points="0,0 56,0 56,7 0,7 0,0" stroke="none" fill="#E6F3FA" opacity="58.4779285%"></polygon></g></g><g transform="translate(1.0 0.0)"><g clip-path="url(#i2)"><polygon points="0,0 56,0 56,52 0,52 0,0" stroke="none" fill="#CDE7F7" opacity="50%"></polygon></g></g><g transform="translate(22.0 39.0)"><g clip-path="url(#i3)"><polygon points="0,0 13,0 13,9 0,9 0,0" stroke="none" fill="#CDE7F7"></polygon></g></g><g transform="translate(4.0 5.0)"><g clip-path="url(#i4)"><polygon points="0,0 48,0 48,48 0,48 0,0" stroke="none" fill="#CDE7F7"></polygon></g></g><g transform="translate(11.0 10.0)"><g clip-path="url(#i5)"><polygon points="0,0 35,0 35,23 0,23 0,0" stroke="none" fill="#E6F3FA"></polygon></g></g></g></g></g></svg>