<?xml version="1.0" encoding="UTF-8"?><svg version="1.1" width="53px" height="46px" viewBox="0 0 53.0 46.0" xmlns="http://www.w3.org/2000/svg" xmlns:xlink="http://www.w3.org/1999/xlink"><defs><clipPath id="i0"><path d="M1440,0 L1440,820 L0,820 L0,0 L1440,0 Z"></path></clipPath><clipPath id="i1"><path d="M1.79994623,0 C2.77451277,0 3.56546533,0.792615385 3.56546533,1.76923077 L3.56546533,24.8853846 L11.0300801,17.4015385 C10.7640956,16.7625298 10.6272746,16.0769863 10.6275417,15.3846154 C10.6275417,12.4547692 13.0003994,10.0769231 15.924099,10.0769231 C18.8477986,10.0769231 21.2206563,12.4547692 21.2206563,15.3846154 C21.2209234,16.0769863 21.0841024,16.7625298 20.8181179,17.4015385 L28.032029,24.6341538 C28.6534917,24.3758462 29.334982,24.2307692 30.0482518,24.2307692 C30.7615215,24.2307692 31.4394808,24.3758462 32.0609435,24.6341538 L49.6207965,7.04092308 C50.3835007,6.28015385 51.615833,6.28015385 52.3750062,7.04092308 C53.1377105,7.80523077 53.1377105,9.04015385 52.3750062,9.80092308 L34.8610568,27.3516923 C35.1647261,28.0169231 35.344809,28.7564615 35.344809,29.5384615 C35.344809,32.4683077 32.9719514,34.8461538 30.0482518,34.8461538 C27.1245521,34.8461538 24.7516945,32.4683077 24.7516945,29.5384615 C24.7516945,28.7564615 24.9282464,28.0169231 25.2354467,27.3516923 L18.1062806,20.2075385 C17.4389144,20.5118462 16.7079895,20.6923077 15.924099,20.6923077 C15.1402085,20.6923077 14.4057526,20.5118462 13.7419174,20.2075385 L3.56546533,30.4053846 L3.56546533,42.4615385 L51.2344809,42.4615385 C52.2090474,42.4615385 53,43.2541538 53,44.2307692 C53,45.2073846 52.2090474,46 51.2344809,46 L1.79994623,46 C0.825379693,46 0.0344271385,45.2073846 0.0344271385,44.2307692 L0.0344271385,26.6587692 C-0.0114757128,26.4239236 -0.0114757128,26.1823841 0.0344271385,25.9475385 L0.0344271385,1.76923077 C0.0344271385,0.792615385 0.825379693,0 1.79994623,0 Z M30.0482518,27.7692308 C29.0701542,27.7692308 28.2827327,28.5618462 28.2827327,29.5384615 C28.2827327,30.5150769 29.0736852,31.3076923 30.0482518,31.3076923 C31.0228183,31.3076923 31.8137709,30.5150769 31.8137709,29.5384615 C31.8137709,28.5618462 31.0228183,27.7692308 30.0482518,27.7692308 Z M15.924099,13.6153846 C14.9460014,13.6153846 14.1585799,14.408 14.1585799,15.3846154 C14.1585799,16.3612308 14.9495325,17.1538462 15.924099,17.1538462 C16.8986655,17.1538462 17.6896181,16.3612308 17.6896181,15.3846154 C17.6896181,14.408 16.8986655,13.6153846 15.924099,13.6153846 Z"></path></clipPath></defs><g transform="translate(-413.0 -352.0)"><g clip-path="url(#i0)"><g transform="translate(413.0 352.0)"><g clip-path="url(#i1)"><polygon points="0,0 53,0 53,46 0,46 0,0" stroke="none" fill="#CDE7F7"></polygon></g></g></g></g></svg>