<?xml version="1.0" encoding="UTF-8"?><svg version="1.1" width="50px" height="44px" viewBox="0 0 50.0 44.0" xmlns="http://www.w3.org/2000/svg" xmlns:xlink="http://www.w3.org/1999/xlink"><defs><clipPath id="i0"><path d="M1440,0 L1440,820 L0,820 L0,0 L1440,0 Z"></path></clipPath><clipPath id="i1"><path d="M47.0606021,38.1219638 C48.6882026,38.1219638 50,39.4396641 50,41.0609819 C50,42.6822997 48.6821295,44 47.0606021,44 L2.93939786,44 C1.31787053,44 0,42.6822997 0,41.0609819 C0,39.4396641 1.31787053,38.1219638 2.93939786,38.1219638 Z M41.1272774,17.5609819 C42.7488048,17.5609819 44.0666753,18.8786822 44.0666753,20.5 L44.0666753,32.2439276 C44.0666753,33.8652455 42.7488048,35.1829457 41.1272774,35.1829457 L38.1878796,35.1829457 C36.5663522,35.1829457 35.2484817,33.8713178 35.2484817,32.25 L35.2484817,20.5 C35.2484817,18.8786822 36.5663522,17.5609819 38.1878796,17.5609819 Z M26.4424344,0 C28.0639618,0 29.3818323,1.31770026 29.3818323,2.93901809 L29.3818323,32.2439276 C29.3818323,33.8652455 28.0639618,35.1829457 26.4424344,35.1829457 L23.5030366,35.1829457 C21.8815092,35.1829457 20.5636387,33.8713178 20.5636387,32.2439276 L20.5636387,2.93901809 C20.5636387,1.31770026 21.8815092,0 23.5030366,0 Z M11.7575914,11.6890181 C13.3791187,11.6890181 14.6969893,13.0067183 14.6969893,14.6280362 L14.6969893,32.2439276 C14.6969893,33.8652455 13.3791187,35.1829457 11.7575914,35.1829457 L8.81819357,35.1829457 C7.1905931,35.1829457 5.87879571,33.8713178 5.87879571,32.25 L5.87879571,14.6280362 C5.87879571,13.0067183 7.19666624,11.6890181 8.81819357,11.6890181 Z"></path></clipPath></defs><g transform="translate(-572.0 -354.0)"><g clip-path="url(#i0)"><g transform="translate(572.0 354.0)"><g clip-path="url(#i1)"><polygon points="0,0 50,0 50,44 0,44 0,0" stroke="none" fill="#CDE7F7"></polygon></g></g></g></g></svg>