<?xml version="1.0" encoding="UTF-8"?>
<svg width="18px" height="18px" viewBox="0 0 18 18" version="1.1" xmlns="http://www.w3.org/2000/svg" xmlns:xlink="http://www.w3.org/1999/xlink">
    <title>编组</title>
    <g id="线索评级" stroke="none" stroke-width="1" fill="none" fill-rule="evenodd">
        <g id="分析洞察-智能分析-新建事件分析" transform="translate(-1329.000000, -510.000000)" fill="currentColor" fill-rule="nonzero">
            <g id="编组-2" transform="translate(1322.000000, 503.000000)">
                <g id="编组" transform="translate(7.000000, 7.000000)">
                    <path d="M15.7331279,10.0613618 L16.8558808,10.1367364 C16.5600037,14.546454 12.8621189,18 8.43750292,18 C3.78450764,18 0,14.215728 0,9.56302233 C0,5.17016886 3.42787506,1.47477394 7.8052575,1.14966928 L7.88849978,2.27123182 C4.09612924,2.55246751 1.12501284,5.75514436 1.12501284,9.56302233 C1.12501284,13.5947646 4.40550965,16.8750759 8.43750292,16.8750759 C12.2726245,16.8750759 15.4766214,13.8827609 15.7331279,10.0613618 Z M18,8.43695899 L18,8.99943039 L17.436373,9.01855419 L9.01913432,9.01855419 L9.01913432,0 L9.58276135,0.00112052632 C14.2244946,0.0112427099 18,3.79663528 18,8.43695899 Z M16.8592426,7.89363008 C16.6083952,4.32760096 13.7362469,1.43316474 10.1441285,1.14966928 L10.1441285,7.89363008 L16.8592426,7.89363008 L16.8592426,7.89363008 Z" id="形状"></path>
                </g>
            </g>
        </g>
    </g>
</svg>