<?xml version="1.0" encoding="UTF-8"?><svg version="1.1" width="14px" height="14px" viewBox="0 0 14.0 14.0" xmlns="http://www.w3.org/2000/svg" xmlns:xlink="http://www.w3.org/1999/xlink"><defs><clipPath id="i0"><path d="M1440,0 L1440,1462 L0,1462 L0,0 L1440,0 Z"></path></clipPath><clipPath id="i1"><path d="M5.63918641,0.383603092 C5.71645448,0.659622881 5.55804517,0.946596379 5.28329921,1.0283265 C2.78274333,1.73628887 1.05494626,4.01662327 1.05005947,6.61532646 C1.0533658,9.81736948 3.64816417,12.4124682 6.85038796,12.4163264 C9.449799,12.4111859 11.7304431,10.6825335 12.4377044,8.18132644 C12.5161333,7.90214651 12.8060453,7.73940204 13.0852411,7.81782647 C13.3644368,7.8962509 13.5271905,8.18614652 13.4487616,8.46532645 C12.6127675,11.4180109 9.92029235,13.4585768 6.85138802,13.4653264 C3.06946031,13.461469 0.00440973367,10.3970393 0,6.61532646 C0.00585773179,3.54585379 2.04671964,0.852476803 5.00028319,0.0163265019 C5.27753547,-0.0554504449 5.56191833,0.107583303 5.63918641,0.383603092 Z"></path></clipPath><clipPath id="i2"><path d="M1.37007759,0.0100001087 C4.48704381,0.390083916 6.94330941,2.84621038 7.32341475,5.96300006 C7.36641719,6.31300006 7.25741102,6.66400005 7.02539786,6.92700006 C6.79784045,7.18446431 6.47097057,7.33223898 6.12734701,7.33300005 L0.866049048,7.32900005 C0.388265117,7.32680627 0.00164250697,6.93975914 0,6.46200006 L0,1.20600009 C0,0.862000089 0.14700832,0.534000103 0.404022885,0.306000099 C0.601284052,0.131250098 0.84804803,0.0279376018 1.1071877,0.00492197948 L1.225,0 L1.37007759,0.0100001087 Z"></path></clipPath></defs><g transform="translate(-398.0 -212.0)"><g clip-path="url(#i0)"><g transform="translate(398.0 212.0)"><g transform="translate(0.0 0.534673594208698)"><g clip-path="url(#i1)"><polygon points="0,4.51028104e-17 13.4684627,4.51028104e-17 13.4684627,13.4653264 0,13.4653264 0,4.51028104e-17" stroke="none" fill="#026EAE"></polygon></g></g><g transform="translate(6.667377594080791 0.0)"><g clip-path="url(#i2)"><polygon points="0,0 7.33262241,0 7.33262241,7.33300005 0,7.33300005 0,0" stroke="none" fill="#91CBED"></polygon></g></g></g></g></g></svg>