<?xml version="1.0" encoding="UTF-8"?>
<svg width="15px" height="17px" viewBox="0 0 15 17" fill="currentColor" version="1.1" xmlns="http://www.w3.org/2000/svg" xmlns:xlink="http://www.w3.org/1999/xlink">
    <title>编组</title>
    <g id="线索评级" stroke="none" stroke-width="1" fill="none" fill-rule="evenodd">
        <g id="分析洞察-智能分析-查看/编辑事件分析" transform="translate(-1292.000000, -144.000000)" fill="currentColor" fill-rule="nonzero">
            <g id="编组" transform="translate(1292.686338, 145.000000)">
                <path d="M11.1045531,4.34746394 C11.1045531,1.95032321 9.160293,0 6.77060447,0 C4.38091593,0 2.43664,1.95030731 2.43664,4.34746394 C2.43664,5.90951989 3.26497423,7.27776034 4.50141043,8.04433765 C2.52887799,8.74924711 0.954029702,10.3417314 0.304352061,12.4429555 C0.102338658,13.0959157 0,13.7766162 0,14.4665421 C0,14.7612498 0.238039655,15 0.53179949,15 C0.825559326,15 1.06359898,14.761218 1.06359898,14.4665421 C1.06359898,13.8839344 1.14997002,13.3094866 1.32014332,12.7589774 C2.06886144,10.3375322 4.27177478,8.71053173 6.8016676,8.71053173 C6.85510442,8.71053173 6.90562363,8.70027231 6.9542559,8.68555919 C9.25847722,8.58794362 11.1045531,6.6823801 11.1045531,4.34744803 L11.1045531,4.34746394 Z M6.77062032,7.62799617 C4.96727807,7.62799617 3.50028655,6.15644578 3.50028655,4.34746394 C3.50028655,2.53848209 4.96726221,1.0669317 6.77062032,1.0669317 C8.57397843,1.0669317 10.0409541,2.53848209 10.0409541,4.34746394 C10.0409541,6.15644578 8.57397843,7.62799617 6.77062032,7.62799617 L6.77062032,7.62799617 Z" id="形状" stroke="currentColor" stroke-width="0.1"></path>
                <g id="所有人可见" transform="translate(6.813662, 10.000000)">
                    <path d="M3.69966455,1.6 C3.20387626,1.60335445 2.80268356,2.00454715 2.8,2.50033545 C2.8,2.99276929 3.20723071,3.4 3.69966455,3.4 C4.1920984,3.4 4.6,2.99276929 4.6,2.50033545 C4.59932911,2.0079016 4.1920984,1.6 3.69966455,1.6 L3.69966455,1.6 Z" id="路径"></path>
                    <path d="M3.75,0 C0.887545429,0 0.0270478054,2.36341853 0.0194995807,2.38738019 C-0.00649986022,2.46086262 -0.00649986022,2.5399361 0.0194995807,2.61341853 C0.0270478054,2.63738019 0.887545429,5 3.75,5 C6.61245457,5 7.47295219,2.63658147 7.48050042,2.61261981 C7.50649986,2.53913738 7.50649986,2.4600639 7.48050042,2.38658147 C7.47295219,2.36341853 6.61245457,0 3.75,0 Z M3.705,4.04634722 C1.99330277,4.04634722 1.33022573,2.87467521 1.17,2.52317361 C1.33094103,2.1703096 1.99473335,1 3.705,1 C5.41669723,1 6.07977427,2.17167201 6.24,2.52317361 C6.07905897,2.87603762 5.41526665,4.04634722 3.705,4.04634722 Z" id="形状"></path>
                </g>
            </g>
        </g>
    </g>
</svg>