<?xml version="1.0" standalone="no"?><!DOCTYPE svg PUBLIC "-//W3C//DTD SVG 1.1//EN" "http://www.w3.org/Graphics/SVG/1.1/DTD/svg11.dtd"><svg class="icon" width="200px" height="200.00px" viewBox="0 0 1024 1024" version="1.1" xmlns="http://www.w3.org/2000/svg"><path fill="" d="M271.970141 989.73927a102.918688 102.918688 0 0 1-73.025859-29.961078 101.826713 101.826713 0 0 1-30.370568-72.275126V375.503066a34.533724 34.533724 0 0 1 9.896027-24.159957 33.237003 33.237003 0 0 1 24.5012-9.486537 32.281525 32.281525 0 0 1 24.091709 9.486537 33.032258 33.032258 0 0 1 10.23727 24.159957v512.409491a34.874967 34.874967 0 0 0 34.73847 33.578245h480.469208a34.533724 34.533724 0 0 0 34.124234-33.578245V377.141029a34.601973 34.601973 0 0 1 68.726206 0v510.771528a101.212477 101.212477 0 0 1-30.029326 72.275126 104.078912 104.078912 0 0 1-72.957611 29.961077z m308.687817-238.869635v-375.366569a34.601973 34.601973 0 0 1 69.135697 0v375.77606a34.601973 34.601973 0 0 1-69.135697 0z m-206.451613 0v-375.366569a34.601973 34.601973 0 0 1 69.135697 0v375.77606a34.601973 34.601973 0 0 1-69.135697 0z m-309.43855-477.73927a34.124234 34.124234 0 0 1-30.438816-34.124233 34.73847 34.73847 0 0 1 30.438816-34.124234h172.054386v-68.248467A101.621967 101.621967 0 0 1 267.192749 64.358304a102.372701 102.372701 0 0 1 73.025859-29.961077h344.654759a102.372701 102.372701 0 0 1 102.372701 102.372701v68.248467h172.054385a34.670221 34.670221 0 0 1 30.370568 34.124234 34.124234 34.124234 0 0 1-30.370568 34.124233z m240.780592-136.496934v68.248467h412.903226v-68.248467a32.418022 32.418022 0 0 0-9.486537-24.02346 33.714743 33.714743 0 0 0-24.091709-9.896028h-344.654759a35.079712 35.079712 0 0 0-34.601972 33.919488z" /></svg>