<?xml version="1.0" encoding="UTF-8"?>
<svg width="18px" height="18px" viewBox="0 0 18 18" version="1.1" xmlns="http://www.w3.org/2000/svg" xmlns:xlink="http://www.w3.org/1999/xlink">
    <title>编组</title>
    <g id="线索评级" stroke="none" stroke-width="1" fill="none" fill-rule="evenodd">
        <g id="分析洞察-智能分析-新建事件分析" transform="translate(-1291.000000, -510.000000)" fill="currentColor" fill-rule="nonzero">
            <g id="编组-2" transform="translate(1284.000000, 503.000000)">
                <g id="编组" transform="translate(6.999291, 7.632574)">
                    <path d="M0.000709400149,16.9877229 C0.000709400149,13.2266422 0.000709400149,7.56584217 0.000709400149,0.00532267573 C-0.0201359009,0.0182342921 1.32962427,-0.0115434083 1.33404876,0.00532267573 L1.33404876,16.9877229 C0.424174122,17.0040924 -0.0202723324,17.0040924 0.000709400149,16.9877229 Z" id="路径"></path>
                    <path d="M6.49184509,19.5327098 L6.49184509,9.53516761 C6.48059749,9.54528558 8.12976814,9.52905957 8.15791764,9.53516761 L8.15791764,19.5327098 C8.1787057,19.5342104 6.46248473,19.5339765 6.49184509,19.5327098 Z" id="路径" transform="translate(7.324789, 14.533749) rotate(90.000000) translate(-7.324789, -14.533749) "></path>
                    <path d="M9.0133396,16.0535527 L9.0133396,1.05674784 C9.00209501,1.0699012 10.6082858,1.04880739 10.6364277,1.05674784 L10.6364277,16.0535527 C10.6572102,16.0555034 8.98398709,16.0551994 9.0133396,16.0535527 Z" id="路径" transform="translate(9.824789, 8.554904) rotate(90.000000) translate(-9.824789, -8.554904) "></path>
                    <path d="M6.45898406,8.0007878 L6.45898406,-1.99773754 C6.44779577,-1.99166676 8.16276905,-2.00140237 8.19077011,-1.99773754 L8.19077011,8.0007878 C8.21144854,8.00168811 6.42977853,8.0015478 6.45898406,8.0007878 Z" id="路径" transform="translate(7.324789, 3.001412) rotate(90.000000) translate(-7.324789, -3.001412) "></path>
                </g>
            </g>
        </g>
    </g>
</svg>