<?xml version="1.0" encoding="UTF-8"?><svg version="1.1" width="20px" height="14px" viewBox="0 0 20.0 14.0" xmlns="http://www.w3.org/2000/svg" xmlns:xlink="http://www.w3.org/1999/xlink"><defs><clipPath id="i0"><path d="M1440,0 L1440,1735 L0,1735 L0,0 L1440,0 Z"></path></clipPath><clipPath id="i1"><path d="M12.1827273,1.76920369 C12.3471764,1.88979964 12.492214,2.03483732 12.61281,2.19928635 L19.666,11.8172727 C20.3192022,12.708003 20.1266477,13.9596077 19.2359173,14.61281 C18.8928834,14.8643682 18.4785766,15 18.05319,15 L3.94681003,15 C2.84224053,15 1.94681003,14.1045695 1.94681003,13 C1.94681003,12.5746133 2.08244182,12.1603066 2.33400004,11.8172727 L9.38719001,2.19928635 C10.0403923,1.30855599 11.291997,1.11600142 12.1827273,1.76920369 Z"></path></clipPath></defs><g transform="translate(-274.0 -915.0)"><g clip-path="url(#i0)"><g transform="translate(273.0 930.0) scale(1.0 -1.0)"><g clip-path="url(#i1)"><polygon points="1.94681003,1.38187902 20.0533246,1.38187902 20.0533246,15 1.94681003,15 1.94681003,1.38187902" stroke="none" fill="currentColor"></polygon></g></g></g></g></svg>